<svg width="140" height="137" viewBox="0 0 140 137" fill="none" xmlns="http://www.w3.org/2000/svg">
<rect x="13" y="11" width="114" height="115" rx="3" fill="white"/>
<path d="M52.2666 93.3359V104H50.4282L45.6455 96.3608V104H43.8071V93.3359H45.6455L50.4429 100.99V93.3359H52.2666ZM59.0488 102.132V96.0752H60.8213V104H59.1514L59.0488 102.132ZM59.2979 100.484L59.8911 100.47C59.8911 101.002 59.8325 101.493 59.7153 101.942C59.5981 102.386 59.4175 102.774 59.1733 103.106C58.9292 103.434 58.6167 103.69 58.2358 103.875C57.855 104.056 57.3984 104.146 56.8662 104.146C56.4805 104.146 56.1265 104.09 55.8042 103.978C55.4819 103.866 55.2036 103.692 54.9692 103.458C54.7397 103.224 54.5615 102.918 54.4346 102.542C54.3076 102.167 54.2441 101.717 54.2441 101.195V96.0752H56.0093V101.209C56.0093 101.498 56.0435 101.739 56.1118 101.935C56.1802 102.125 56.2729 102.279 56.3901 102.396C56.5073 102.513 56.644 102.596 56.8003 102.645C56.9565 102.694 57.1226 102.718 57.2983 102.718C57.8013 102.718 58.1968 102.621 58.4849 102.425C58.7778 102.225 58.9854 101.957 59.1074 101.62C59.2344 101.283 59.2979 100.904 59.2979 100.484ZM66.2632 96.0752V97.3643H61.7954V96.0752H66.2632ZM63.0845 94.1343H64.8496V101.81C64.8496 102.054 64.8838 102.242 64.9521 102.374C65.0254 102.501 65.1255 102.586 65.2524 102.63C65.3794 102.674 65.5283 102.696 65.6992 102.696C65.8213 102.696 65.9385 102.689 66.0508 102.674C66.1631 102.66 66.2534 102.645 66.3218 102.63L66.3291 103.978C66.1826 104.022 66.0117 104.061 65.8164 104.095C65.626 104.129 65.4062 104.146 65.1572 104.146C64.752 104.146 64.3931 104.076 64.0806 103.934C63.7681 103.788 63.5239 103.551 63.3481 103.224C63.1724 102.896 63.0845 102.462 63.0845 101.92V94.1343ZM69.3979 97.584V104H67.6328V96.0752H69.3174L69.3979 97.584ZM71.8223 96.0239L71.8076 97.6646C71.7002 97.645 71.583 97.6304 71.4561 97.6206C71.334 97.6108 71.2119 97.606 71.0898 97.606C70.7871 97.606 70.521 97.6499 70.2915 97.7378C70.062 97.8208 69.8691 97.9429 69.7129 98.104C69.5615 98.2603 69.4443 98.4507 69.3613 98.6753C69.2783 98.8999 69.2295 99.1514 69.2148 99.4297L68.812 99.459C68.812 98.9609 68.8608 98.4995 68.9585 98.0747C69.0562 97.6499 69.2026 97.2764 69.3979 96.9541C69.5981 96.6318 69.8472 96.3804 70.145 96.1997C70.4478 96.019 70.7969 95.9287 71.1924 95.9287C71.2998 95.9287 71.4146 95.9385 71.5366 95.958C71.6636 95.9775 71.7588 95.9995 71.8223 96.0239ZM74.8179 96.0752V104H73.0454V96.0752H74.8179ZM72.9282 93.9951C72.9282 93.7266 73.0161 93.5044 73.1919 93.3286C73.3726 93.1479 73.6216 93.0576 73.939 93.0576C74.2515 93.0576 74.498 93.1479 74.6787 93.3286C74.8594 93.5044 74.9497 93.7266 74.9497 93.9951C74.9497 94.2588 74.8594 94.4785 74.6787 94.6543C74.498 94.8301 74.2515 94.918 73.939 94.918C73.6216 94.918 73.3726 94.8301 73.1919 94.6543C73.0161 94.4785 72.9282 94.2588 72.9282 93.9951ZM79.9888 102.74C80.2769 102.74 80.5356 102.684 80.7651 102.572C80.9995 102.455 81.1875 102.293 81.3291 102.088C81.4756 101.883 81.5562 101.646 81.5708 101.378H83.2334C83.2236 101.891 83.0723 102.357 82.7793 102.777C82.4863 103.197 82.0981 103.531 81.6147 103.78C81.1313 104.024 80.5967 104.146 80.0107 104.146C79.4053 104.146 78.8779 104.044 78.4287 103.839C77.9795 103.629 77.606 103.341 77.3081 102.975C77.0103 102.608 76.7856 102.186 76.6343 101.708C76.4878 101.229 76.4146 100.716 76.4146 100.169V99.9131C76.4146 99.3662 76.4878 98.8535 76.6343 98.375C76.7856 97.8916 77.0103 97.4668 77.3081 97.1006C77.606 96.7344 77.9795 96.4487 78.4287 96.2437C78.8779 96.0337 79.4028 95.9287 80.0034 95.9287C80.6382 95.9287 81.1948 96.0557 81.6733 96.3096C82.1519 96.5586 82.5278 96.9077 82.8013 97.3569C83.0796 97.8013 83.2236 98.3188 83.2334 98.9097H81.5708C81.5562 98.6167 81.4829 98.353 81.3511 98.1187C81.2241 97.8794 81.0435 97.689 80.8091 97.5474C80.5796 97.4058 80.3037 97.335 79.9814 97.335C79.625 97.335 79.3296 97.4082 79.0952 97.5547C78.8608 97.6963 78.6777 97.8916 78.5459 98.1406C78.4141 98.3848 78.3188 98.6606 78.2603 98.9683C78.2065 99.271 78.1797 99.5859 78.1797 99.9131V100.169C78.1797 100.497 78.2065 100.814 78.2603 101.122C78.314 101.429 78.4067 101.705 78.5386 101.949C78.6753 102.188 78.8608 102.381 79.0952 102.528C79.3296 102.669 79.6274 102.74 79.9888 102.74ZM79.2124 104.015H80.5234L80.4355 104.425C80.7139 104.474 80.9678 104.591 81.1973 104.776C81.4316 104.967 81.5488 105.272 81.5488 105.692C81.5488 105.941 81.4976 106.166 81.395 106.366C81.2925 106.566 81.1387 106.737 80.9336 106.878C80.7334 107.025 80.4819 107.137 80.1792 107.215C79.8813 107.293 79.5347 107.333 79.1392 107.333L79.0879 106.336C79.2783 106.336 79.4492 106.312 79.6006 106.263C79.752 106.219 79.8716 106.148 79.9595 106.051C80.0522 105.953 80.0986 105.826 80.0986 105.67C80.0986 105.519 80.0596 105.401 79.9814 105.318C79.9033 105.235 79.7812 105.172 79.6152 105.128C79.4541 105.084 79.2441 105.052 78.9854 105.033L79.2124 104.015ZM89.0562 102.411V98.6313C89.0562 98.3481 89.0049 98.104 88.9023 97.8989C88.7998 97.6938 88.6436 97.5352 88.4336 97.4229C88.2285 97.3105 87.9697 97.2544 87.6572 97.2544C87.3691 97.2544 87.1201 97.3032 86.9102 97.4009C86.7002 97.4985 86.5366 97.6304 86.4194 97.7964C86.3022 97.9624 86.2437 98.1504 86.2437 98.3604H84.4858C84.4858 98.0479 84.5615 97.7451 84.7129 97.4521C84.8643 97.1592 85.084 96.8979 85.3721 96.6685C85.6602 96.439 86.0044 96.2583 86.4048 96.1265C86.8052 95.9946 87.2544 95.9287 87.7524 95.9287C88.3481 95.9287 88.8755 96.0288 89.3345 96.229C89.7983 96.4292 90.1621 96.7319 90.4258 97.1372C90.6943 97.5376 90.8286 98.0405 90.8286 98.646V102.169C90.8286 102.53 90.853 102.855 90.9019 103.143C90.9556 103.426 91.0312 103.673 91.1289 103.883V104H89.3198C89.2368 103.81 89.1709 103.568 89.1221 103.275C89.0781 102.977 89.0562 102.689 89.0562 102.411ZM89.3125 99.1807L89.3271 100.272H88.0601C87.7329 100.272 87.4448 100.304 87.1958 100.367C86.9468 100.426 86.7393 100.514 86.5732 100.631C86.4072 100.748 86.2827 100.89 86.1997 101.056C86.1167 101.222 86.0752 101.41 86.0752 101.62C86.0752 101.83 86.124 102.022 86.2217 102.198C86.3193 102.369 86.4609 102.503 86.6465 102.601C86.8369 102.699 87.0664 102.748 87.335 102.748C87.6963 102.748 88.0112 102.674 88.2798 102.528C88.5532 102.376 88.7681 102.193 88.9243 101.979C89.0806 101.759 89.1636 101.551 89.1733 101.356L89.7446 102.14C89.686 102.34 89.5859 102.555 89.4443 102.784C89.3027 103.014 89.1172 103.233 88.8877 103.443C88.6631 103.648 88.3921 103.817 88.0747 103.949C87.7622 104.081 87.4009 104.146 86.9907 104.146C86.4731 104.146 86.0117 104.044 85.6064 103.839C85.2012 103.629 84.8838 103.348 84.6543 102.997C84.4248 102.64 84.3101 102.237 84.3101 101.788C84.3101 101.368 84.3882 100.997 84.5444 100.675C84.7056 100.348 84.9399 100.074 85.2476 99.8545C85.5601 99.6348 85.9409 99.4688 86.3901 99.3564C86.8394 99.2393 87.3521 99.1807 87.9282 99.1807H89.3125ZM89.4224 92.8379L90.499 92.9185C90.499 93.2749 90.4282 93.5947 90.2866 93.8779C90.145 94.1562 89.9521 94.376 89.708 94.5371C89.4639 94.6982 89.188 94.7788 88.8804 94.7788C88.6411 94.7788 88.4385 94.7446 88.2725 94.6763C88.1064 94.6079 87.9551 94.5298 87.8184 94.4419C87.6816 94.354 87.54 94.2783 87.3936 94.2148C87.252 94.1465 87.0835 94.1123 86.8882 94.1123C86.7026 94.1123 86.5439 94.1807 86.4121 94.3174C86.2852 94.4541 86.2217 94.6372 86.2217 94.8667L85.1377 94.8081C85.1377 94.4565 85.2085 94.1392 85.3501 93.856C85.4917 93.5728 85.6846 93.3481 85.9287 93.1821C86.1729 93.0161 86.4487 92.9331 86.7563 92.9331C86.9565 92.9331 87.1372 92.9673 87.2983 93.0356C87.4644 93.0991 87.6206 93.1748 87.7671 93.2627C87.9185 93.3506 88.0723 93.4287 88.2285 93.4971C88.3848 93.5654 88.5581 93.5996 88.7485 93.5996C88.9341 93.5996 89.0928 93.5288 89.2246 93.3872C89.3564 93.2456 89.4224 93.0625 89.4224 92.8379ZM92.3374 100.125V99.957C92.3374 99.3857 92.4204 98.856 92.5864 98.3677C92.7524 97.8745 92.9917 97.4473 93.3042 97.0859C93.6216 96.7197 94.0073 96.4365 94.4614 96.2363C94.9204 96.0312 95.438 95.9287 96.0142 95.9287C96.5952 95.9287 97.1128 96.0312 97.5669 96.2363C98.0259 96.4365 98.4141 96.7197 98.7314 97.0859C99.0488 97.4473 99.2905 97.8745 99.4565 98.3677C99.6226 98.856 99.7056 99.3857 99.7056 99.957V100.125C99.7056 100.697 99.6226 101.227 99.4565 101.715C99.2905 102.203 99.0488 102.63 98.7314 102.997C98.4141 103.358 98.0283 103.641 97.5742 103.846C97.1201 104.046 96.605 104.146 96.0288 104.146C95.4478 104.146 94.9277 104.046 94.4688 103.846C94.0146 103.641 93.6289 103.358 93.3115 102.997C92.9941 102.63 92.7524 102.203 92.5864 101.715C92.4204 101.227 92.3374 100.697 92.3374 100.125ZM94.1025 99.957V100.125C94.1025 100.482 94.1392 100.819 94.2124 101.136C94.2856 101.454 94.4004 101.732 94.5566 101.971C94.7129 102.21 94.9131 102.398 95.1572 102.535C95.4014 102.672 95.6919 102.74 96.0288 102.74C96.356 102.74 96.6392 102.672 96.8784 102.535C97.1226 102.398 97.3228 102.21 97.479 101.971C97.6353 101.732 97.75 101.454 97.8232 101.136C97.9014 100.819 97.9404 100.482 97.9404 100.125V99.957C97.9404 99.6055 97.9014 99.2734 97.8232 98.9609C97.75 98.6436 97.6328 98.3628 97.4717 98.1187C97.3154 97.8745 97.1152 97.6841 96.8711 97.5474C96.6318 97.4058 96.3462 97.335 96.0142 97.335C95.6821 97.335 95.394 97.4058 95.1499 97.5474C94.9106 97.6841 94.7129 97.8745 94.5566 98.1187C94.4004 98.3628 94.2856 98.6436 94.2124 98.9609C94.1392 99.2734 94.1025 99.6055 94.1025 99.957Z" fill="#444444"/>
<path d="M121.951 127.037H12.4327C12.1149 127.037 11.8102 126.911 11.5854 126.686C11.3607 126.462 11.2344 126.158 11.2344 125.84V16.4029C11.2344 14.5737 11.9623 12.8194 13.2578 11.526C14.5533 10.2325 16.3103 9.50586 18.1424 9.50586H127.567C127.885 9.50586 128.189 9.63193 128.414 9.8563C128.639 10.0807 128.765 10.385 128.765 10.7023V120.14C128.765 121.969 128.037 123.723 126.742 125.017C125.446 126.31 123.689 127.037 121.857 127.037H121.951ZM13.4431 124.691H121.857C123.054 124.691 124.201 124.216 125.047 123.372C125.893 122.527 126.369 121.381 126.369 120.187V11.8987H18.0485C16.852 11.8987 15.7045 12.3733 14.8584 13.218C14.0124 14.0627 13.537 15.2083 13.537 16.4029L13.4431 124.691Z" fill="black"/>
<path d="M127.384 12.0988C127.191 12.0978 127.001 12.0503 126.828 11.9597C126.655 11.8692 126.505 11.7382 126.388 11.5769C126.278 11.4126 126.208 11.2227 126.183 11.0236C126.158 10.8245 126.18 10.6221 126.246 10.4337C127.153 7.32745 128.609 4.42742 130.537 1.8844C132.908 -0.228073 137.127 -0.849372 139.071 1.51162C139.543 2.15254 139.848 2.91097 139.956 3.71262C140.064 4.51426 139.972 5.3316 139.688 6.08449C139.236 7.58698 138.419 8.94026 137.317 10.0112C135.183 11.9497 128.759 12.0988 127.479 12.0988H127.384ZM135.492 2.53059C134.267 2.55369 133.084 2.9991 132.125 3.79802C130.82 5.49747 129.809 7.42374 129.138 9.48928C131.374 9.52257 133.59 9.04778 135.634 8.09754C136.444 7.34981 137.05 6.38896 137.388 5.31406C137.518 4.96924 137.573 4.59833 137.548 4.22851C137.523 3.85868 137.42 3.49928 137.246 3.1767C137.01 2.95061 136.733 2.77686 136.432 2.66582C136.13 2.55477 135.81 2.50879 135.492 2.53059Z" fill="black"/>
<path d="M4.55973 136.537C3.88394 136.573 3.2088 136.454 2.58221 136.188C1.95562 135.922 1.39309 135.515 0.934686 134.997C0.459895 134.362 0.152879 133.608 0.0441088 132.811C-0.0646618 132.014 0.0285682 131.201 0.314572 130.453C0.768875 128.952 1.59084 127.6 2.69954 126.53C4.846 124.593 11.3092 124.444 12.5971 124.444C12.7907 124.442 12.982 124.488 13.1552 124.578C13.3283 124.669 13.4783 124.8 13.5926 124.963C13.7069 125.126 13.7823 125.315 13.8124 125.514C13.8425 125.713 13.8264 125.917 13.7657 126.108C13.5272 126.778 11.5239 132.762 9.42515 134.65C8.02775 135.851 6.27667 136.517 4.46439 136.537H4.55973ZM4.29742 128.442C3.482 129.189 2.87279 130.149 2.53257 131.223C2.40194 131.568 2.34696 131.938 2.37172 132.308C2.39648 132.677 2.50034 133.036 2.67566 133.358C3.5581 134.426 6.30074 134.078 7.82712 132.713C9.14035 131.015 10.1575 129.09 10.8322 127.027C8.58106 126.999 6.35114 127.482 4.29742 128.442Z" fill="black"/>
<g clip-path="url(#clip0_2454_870)">
<path opacity="0.06" d="M70.647 80.0002C90.3343 80.0002 106.294 77.2914 106.294 73.9498C106.294 70.6083 90.3343 67.8994 70.647 67.8994C50.9597 67.8994 35 70.6083 35 73.9498C35 77.2914 50.9597 80.0002 70.647 80.0002Z" fill="#2463CB"/>
<path fill-rule="evenodd" clip-rule="evenodd" d="M92.2967 47.0711C98.1157 48.4642 101.025 50.1918 101.026 52.254C101.026 54.2612 98.1162 55.9896 92.2967 57.4392C86.4771 58.8888 79.4717 59.6133 71.2803 59.6128C63.0874 59.6128 56.053 58.8883 50.1773 57.4392C44.3583 55.9886 41.4485 54.2602 41.448 52.254C41.448 50.1913 44.3578 48.4637 50.1773 47.0711C55.9963 45.623 63.0306 44.8985 71.2803 44.8975C79.53 44.8965 86.5354 45.621 92.2967 47.0711Z" fill="url(#paint0_linear_2454_870)"/>
<path fill-rule="evenodd" clip-rule="evenodd" d="M102.381 52.005H101.025C100.8 50.0543 97.8055 48.3821 92.0422 46.9885C85.2279 45.4901 78.2586 44.7885 71.278 44.8981C64.3256 44.7843 57.3842 45.4861 50.5997 46.9885C44.8369 48.3811 41.8142 50.0533 41.5316 52.005H39.8381C40.5731 49.6656 43.9062 47.7143 49.8377 46.1513C55.8274 44.5348 62.9182 43.7266 71.1101 43.7266C79.2468 43.7266 86.309 44.5348 92.2967 46.1513C98.2251 47.7143 101.586 49.6656 102.381 52.005Z" fill="white"/>
<path fill-rule="evenodd" clip-rule="evenodd" d="M65.0079 36.3685L65.1773 35.1153C65.2456 33.9044 65.533 32.7154 66.0259 31.6045C66.4772 30.6566 66.9857 30.1827 67.5515 30.1827H70.4339L72.5528 30.6856L72.9759 29.598C73.3573 29.2107 73.8214 28.9121 74.3345 28.7241C74.8476 28.5361 75.3967 28.4634 75.9419 28.5112C76.4504 28.5112 77.7496 28.4278 79.8393 28.2609C80.7232 28.1717 81.6162 28.2568 82.4665 28.5112C83.4263 28.8465 84.6975 29.8219 86.2803 31.4374L87.4647 33.5285L88.5671 33.3614C89.2437 33.4179 89.3848 34.031 88.9903 35.2007C88.8161 35.7851 88.4607 36.301 87.9741 36.6759C87.4875 37.0508 86.8941 37.266 86.2773 37.2912C85.3529 37.4927 84.3854 37.3436 83.5673 36.8737C83.2275 36.6498 82.5493 37.151 81.5328 38.3772C81.3631 38.6011 80.5157 39.7998 78.9907 41.9734C78.3108 43.1701 77.2757 44.1326 76.0247 44.7317L74.5858 46.906C74.0236 47.8539 73.3462 48.9967 72.5535 50.3343C71.9893 51.1701 71.422 51.4771 70.8586 51.2533C70.2366 51.0294 69.8408 51.0294 69.6711 51.2533C69.6149 51.3087 69.1629 52.2566 68.315 54.097L66.8753 57.3574C66.0842 59.1967 65.4625 60.5901 65.0102 61.5375C64.954 61.7598 64.7846 63.1254 64.5019 65.6343C64.328 67.5533 64.328 69.4837 64.5019 71.4027C64.5579 72.519 64.2474 73.1573 63.569 73.3275C62.3828 73.7172 60.7443 73.4104 58.6535 72.407C56.0967 71.1691 54.0801 69.0603 52.9761 66.4701C52.9761 60.7302 54.0777 56.7175 56.2809 54.432C56.9757 53.6164 57.4431 52.6363 57.637 51.5883C57.8067 50.6969 58.1455 50.1675 58.6535 50.0001L60.0947 49.4154L61.0262 44.4813C60.7074 44.3862 60.4358 44.1775 60.2642 43.8959C59.8691 43.3413 60.1231 42.6168 61.0262 41.7223L63.0607 39.5487C63.7357 38.7281 64.2528 37.7925 64.5863 36.7882C64.8106 36.2301 64.9512 36.0901 65.0079 36.3685Z" fill="#719B3F"/>
<path fill-rule="evenodd" clip-rule="evenodd" d="M68.059 35.7006C68.4698 36.0626 68.9258 36.3714 69.4159 36.6196C69.6188 36.1736 69.8746 35.7529 70.1779 35.3664C70.5697 34.6708 71.2012 34.1369 71.9579 33.8613C72.5323 33.6545 73.1292 33.5141 73.7364 33.4431C73.3968 32.6116 73.3968 31.6827 73.7364 30.8512C74.0753 29.8479 74.9791 29.3462 76.4479 29.3462H78.1428C77.742 29.3582 77.3437 29.4143 76.9554 29.5133C76.5949 29.5492 76.2474 29.6656 75.9394 29.8538C75.6313 30.042 75.3708 30.297 75.1776 30.5994C74.7598 31.2757 74.581 32.0697 74.6694 32.8569L75.7702 32.2723C76.7306 31.7701 77.758 31.404 78.8221 31.1848C79.8325 30.9879 80.8246 30.7084 81.788 30.349C82.3329 30.141 82.9021 30.0015 83.4822 29.9338C83.9907 29.9338 84.6401 30.4912 85.4302 31.606C85.0889 31.371 84.7001 31.212 84.2904 31.1398C83.8808 31.0675 83.4601 31.0839 83.0575 31.1878L81.1924 31.8564L82.4642 31.606C82.937 31.6053 83.4037 31.7104 83.8294 31.9133C84.2551 32.1162 84.6286 32.4117 84.9219 32.7775C84.9791 32.833 85.459 33.4179 86.3616 34.5322C86.4596 34.6364 86.5781 34.7199 86.7099 34.7773C86.8417 34.8348 86.9841 34.8651 87.1282 34.8664C87.6402 34.8712 88.1509 34.8148 88.6491 34.6985C88.087 36.1471 87.3536 36.4532 86.449 35.6167C85.2613 34.5004 84.5831 33.8868 84.4144 33.7759C83.7662 33.2643 82.9542 32.9978 82.1246 33.0241L79.5825 33.2744L79.6676 33.6927C79.8013 33.893 79.9758 34.0637 80.18 34.1939C80.3841 34.3241 80.6135 34.411 80.8535 34.449C81.7384 34.7231 82.6464 34.9188 83.5666 35.0336C83.5666 35.201 82.6908 35.2847 80.9394 35.2847C80.1395 35.2811 79.3636 35.015 78.7339 34.5284C78.4857 34.3638 78.1968 34.2691 77.8981 34.2544C77.5995 34.2397 77.3024 34.3057 77.0389 34.4452L73.4804 36.0334L76.4464 37.6217C77.746 38.1798 78.8192 38.1798 79.6661 37.6217C78.253 38.9038 77.1514 39.5449 76.3613 39.5449C75.6743 39.3599 75.0182 39.0777 74.4133 38.7069C73.4535 38.1523 72.691 38.0129 72.1258 38.2887C71.1296 38.7503 70.2583 39.4378 69.583 40.2952C68.6748 41.21 68.0057 42.3289 67.6335 43.5556L66.7856 46.9862L70.0054 46.3161C70.7527 46.1373 71.4884 45.9143 72.2086 45.6483C72.7174 45.1787 73.121 44.6094 73.3938 43.9769C74.1287 42.7512 74.8066 42.0821 75.4275 41.9696L73.3938 45.5636C73.0149 46.3842 72.561 47.1689 72.0376 47.9081C71.7735 48.2042 71.4471 48.4398 71.0811 48.5985C70.7151 48.7572 70.3184 48.8352 69.9187 48.827C68.7895 48.7718 68.0252 48.7438 67.6304 48.7438C67.3751 48.7176 67.1176 48.7675 66.8913 48.8869C66.6649 49.0063 66.4799 49.1899 66.3602 49.4139C65.7326 50.3879 65.0249 51.3095 64.2444 52.1691C64.3578 53.0061 64.9512 53.0061 66.0244 52.1691C66.8457 51.38 67.8722 50.8304 68.9904 50.5809C69.273 51.251 68.9061 52.1154 67.8896 53.1743C67.4373 53.6759 65.5719 56.2123 62.2934 60.7834C59.1871 64.6839 57.3789 65.6033 56.8689 63.5417C56.4783 61.9019 56.5964 60.1841 57.2077 58.6113C57.7043 57.7466 58.0753 56.8173 58.3101 55.8508C57.915 53.6762 57.8869 52.1989 58.2258 51.4189C58.4859 50.8734 58.8612 50.3891 59.3266 49.9985L60.0932 49.4139L60.6015 50.4992C60.9965 51.2243 61.3918 51.5868 61.7874 51.5868C62.5213 51.5868 62.9733 51.3347 63.1435 50.8305C62.6135 50.518 62.1724 50.078 61.8614 49.5518C61.5504 49.0256 61.3796 48.4301 61.365 47.8212C61.365 47.5373 61.308 46.8685 61.1941 45.8147C61.2971 46.5598 61.6209 47.2583 62.1247 47.8227L64.0742 49.8299C65.034 49.2717 65.2315 48.3238 64.6668 46.9862C64.3421 46.3746 64.0866 45.7296 63.9048 45.0629C63.7212 44.3807 63.6922 43.667 63.8197 42.9725L64.5863 38.4574L64.7557 43.7258C64.7892 44.1038 64.9144 44.4682 65.1209 44.7884C65.3273 45.1085 65.6088 45.3749 65.9416 45.5651C65.9282 44.0346 66.1574 42.5114 66.6208 41.0507C66.8057 40.266 67.0903 39.5075 67.4679 38.7932C67.5763 38.5516 67.7191 38.3265 67.8919 38.1246C67.0445 38.1246 66.5922 37.6227 66.535 36.6188C66.3096 35.6154 66.1683 34.8909 66.111 34.4452C66.0198 34.0888 66.0267 33.7148 66.131 33.362C66.2353 33.0091 66.4333 32.6901 66.7044 32.438C67.0877 31.9223 67.5793 31.4944 68.1456 31.1833C68.527 31.0566 68.9287 31 69.3308 31.0161H69.9663C69.5749 31.1058 69.2085 31.2796 68.8932 31.5253C68.5779 31.771 68.3216 32.0824 68.1425 32.4372C67.1827 33.9443 67.1546 35.0321 68.0582 35.7006H68.059Z" fill="#5A873C"/>
<path fill-rule="evenodd" clip-rule="evenodd" d="M70.1779 41.0522C71.0825 39.9934 71.9863 39.7149 72.8894 40.2165C73.9626 40.7182 74.1885 41.0802 73.567 41.3026C73.062 41.84 72.6602 42.4635 72.3811 43.1427C71.7034 44.2565 71.1101 44.8413 70.6011 44.8973L67.8911 45.3987C68.4351 43.8475 69.2058 42.383 70.1787 41.0515L70.1779 41.0522Z" fill="#7BB342"/>
<path fill-rule="evenodd" clip-rule="evenodd" d="M65.5169 36.6203C66.1961 37.0665 66.5071 37.5125 66.4498 37.9582C66.2465 38.5251 65.9612 39.0601 65.6027 39.5465C65.1504 40.5498 65.094 42.0271 65.4333 43.9784C65.0935 43.6431 64.8957 42.8349 64.84 41.5537C64.7805 40.4381 64.809 39.3197 64.9251 38.2086C65.0344 36.9269 65.2317 36.3975 65.5169 36.6203Z" fill="#7BB342"/>
<path fill-rule="evenodd" clip-rule="evenodd" d="M62.4653 42.4724C62.8604 42.5279 63.0862 42.8064 63.143 43.3081C63.1189 43.9238 63.0618 44.5377 62.972 45.1474C62.9809 46.3503 63.3021 47.5309 63.905 48.5765C62.8622 47.8852 62.0626 46.8916 61.6167 45.7328C61.4471 44.9891 61.4471 44.2175 61.6167 43.4737C61.7874 42.7507 62.0702 42.4167 62.4653 42.4716V42.4724Z" fill="#7BB342"/>
<path fill-rule="evenodd" clip-rule="evenodd" d="M70.4323 31.0191C70.7711 31.131 70.8841 31.5493 70.7711 32.2738C70.7713 32.5849 70.6844 32.8901 70.5201 33.1556C70.3558 33.4212 70.1203 33.6369 69.8397 33.7788C69.6239 33.8529 69.4278 33.9741 69.2662 34.1335C69.1047 34.2929 68.9818 34.4863 68.9067 34.6993C68.8504 34.8904 68.8504 35.0935 68.9067 35.2846C68.6241 35.2282 68.4828 34.6708 68.4828 33.6125C68.4453 32.8965 68.6544 32.1891 69.0762 31.6052C69.1947 31.3645 69.3963 31.1732 69.6448 31.0658C69.8933 30.9584 70.1725 30.9419 70.4323 31.0191Z" fill="#7BB342"/>
<path fill-rule="evenodd" clip-rule="evenodd" d="M75.9404 31.1858L76.4487 30.3501C76.9056 29.8223 77.5344 29.4678 78.2272 29.3472C78.793 29.2363 79.5274 29.0692 80.4304 28.8458C81.0537 28.7906 81.2231 28.9562 80.941 29.3472C80.8265 29.5696 80.0343 29.7924 78.5645 30.0158C77.1534 30.2946 76.2788 30.6846 75.9404 31.1858Z" fill="#7BB342"/>
<path fill-rule="evenodd" clip-rule="evenodd" d="M76.0247 35.867C76.3111 36.0355 76.627 36.1494 76.9561 36.2028C77.1471 36.1243 77.3467 36.0682 77.551 36.0356C77.9222 36.0138 78.2906 35.9574 78.651 35.867C79.2854 35.9063 79.8983 36.1081 80.4296 36.4523C81.0526 36.8986 81.1095 37.1492 80.6005 37.2041C79.8932 37.1953 79.1859 37.2234 78.4816 37.2881C78.167 37.3023 77.8529 37.2499 77.5605 37.1343C77.2681 37.0187 77.0042 36.8427 76.7867 36.618L76.0247 35.8662V35.867Z" fill="#7BB342"/>
<path fill-rule="evenodd" clip-rule="evenodd" d="M69.4994 49.5789C69.3202 49.8733 69.0545 50.107 68.7374 50.249C68.2348 50.301 67.7609 50.5052 67.3806 50.8336C67.035 51.1528 66.6093 51.3752 66.1475 51.478C65.6857 51.5808 65.2044 51.5601 64.7534 51.4182C65.4834 51.0632 66.1431 50.5821 66.7014 49.9979C67.215 49.4661 67.9088 49.139 68.6508 49.079C69.4435 48.9103 69.7241 49.079 69.4994 49.5796V49.5789Z" fill="#7BB342"/>
<path fill-rule="evenodd" clip-rule="evenodd" d="M81.28 33.7766H83.1452C83.6838 33.7693 84.2132 33.9144 84.6707 34.1949C85.123 34.4737 85.2932 34.7523 85.1813 35.0306C85.123 35.3097 84.7849 35.4201 84.1632 35.3664C83.5441 35.3118 82.9549 35.0793 82.4683 34.6978L81.28 33.7766Z" fill="#7BB342"/>
<path fill-rule="evenodd" clip-rule="evenodd" d="M42.1271 37.7911C42.1833 37.6227 42.4389 37.0932 42.8937 36.2028C43.6276 34.6983 44.0229 33.8895 44.0796 33.7766C44.2351 33.5105 44.4425 33.2774 44.6899 33.091C44.9373 32.9046 45.2197 32.7685 45.5209 32.6905L48.4033 31.7716C49.7029 29.1498 50.6632 27.5333 51.2842 26.9222C51.624 26.5879 52.189 27.1174 52.9791 28.5105C53.4314 29.291 54.1096 30.6843 55.0137 32.6905C55.5222 33.6949 55.6633 34.4197 55.4369 34.8649C55.0137 35.5281 54.7259 36.2665 54.5898 37.0385C54.4724 37.8158 54.4724 38.6058 54.5898 39.3831C54.646 39.7163 54.7873 40.6917 55.0137 42.3092C55.1831 43.4784 55.3249 44.0086 55.4369 43.8974C55.7757 43.6196 56.2277 43.843 56.793 44.5675C57.4149 45.2926 57.6408 45.6831 57.4706 45.739C57.1318 45.85 56.9905 46.3234 57.0467 47.1594C57.1042 48.0503 57.2161 48.4693 57.3871 48.4141C57.8394 48.3032 58.376 48.6095 58.997 49.333C59.4167 49.7648 59.786 50.2417 60.0978 50.7548C60.6075 51.8036 61.2023 52.81 61.8763 53.7642C65.1533 58.6705 65.8879 61.0121 64.0803 60.7887C62.7591 60.6171 61.4252 60.5606 60.094 60.62C57.6643 60.734 56.4212 60.7902 56.3644 60.7887C54.2095 60.8451 52.0539 60.7054 49.925 60.3712C49.0214 60.1474 48.0606 59.2272 47.0426 57.6107C46.1414 56.1028 45.4029 54.5059 44.8393 52.846C44.6706 52.1856 44.3838 51.5601 43.9923 50.9991C43.8567 50.6219 43.7714 50.2288 43.7385 49.8299C43.623 48.881 43.4531 48.379 43.2287 48.3241L42.8899 48.4912C42.1532 47.4207 41.6087 46.2331 41.28 44.9805C41.2193 43.348 41.3903 41.7152 41.7883 40.1295C42.0129 38.7932 42.1271 38.0119 42.1271 37.7911Z" fill="#719B3F"/>
<path fill-rule="evenodd" clip-rule="evenodd" d="M48.8182 33.0253C49.3803 30.9076 50.256 29.6255 51.4453 29.1787C52.123 28.9564 52.4904 29.2085 52.5477 29.935C52.4461 29.8772 52.3338 29.84 52.2174 29.8257C52.101 29.8114 51.9829 29.8203 51.87 29.8518C51.3615 29.9073 50.9094 30.3533 50.5139 31.1897C50.0485 32.1292 49.7873 33.1542 49.7473 34.1991C49.6911 34.5344 49.6629 35.6489 49.6629 37.5427C49.6629 39.1592 49.7194 40.5805 49.8324 41.8067L50.0869 40.971C50.4819 39.5779 51.0186 38.714 51.6967 38.3792C52.0918 38.2118 52.4306 37.7106 52.7133 36.8756C52.9747 36.1018 53.2881 35.3461 53.6516 34.6135C53.9919 34.1121 54.3017 33.8618 54.5845 33.8618C54.6514 33.8533 54.7194 33.8646 54.7798 33.8944C54.8401 33.9242 54.8901 33.971 54.9234 34.0289L54.4143 34.5303C54.2143 34.7111 54.068 34.9422 53.9912 35.1989C53.8263 35.6879 53.7122 36.1922 53.6508 36.7039C53.5379 37.2344 53.3377 37.7431 53.0582 38.2097C52.7519 38.7059 52.4109 39.1805 52.0379 39.6301C51.2784 41.0228 50.8443 42.5655 50.7676 44.1452C50.7114 45.3709 50.7679 45.984 50.937 45.9845C51.4418 45.0436 52.0696 44.1722 52.8045 43.3927C53.3838 42.737 53.7394 41.9181 53.821 41.0519L53.9061 39.6301V42.2219C53.7838 43.5185 53.3787 44.7737 52.7186 45.9013C52.0566 47.011 51.7606 48.2963 51.8715 49.5792C52.0412 50.2493 52.239 50.6398 52.4649 50.7508C52.7553 50.6894 53.0206 50.544 53.2269 50.3333C53.623 50.0545 54.1596 49.0229 54.8367 47.2385C55.0874 46.4621 55.4587 45.7288 55.9376 45.0649L56.5309 44.6466L55.9376 46.1524C55.5987 48.4929 55.3729 49.8306 55.2599 50.1654C54.8076 51.9503 54.2991 52.8704 53.7344 52.9259L54.412 54.1806C54.5936 54.6132 54.8534 55.0096 55.1786 55.3506C55.8533 55.2665 56.4925 55.0048 57.0292 54.5929C57.5659 54.1811 57.9804 53.6342 58.229 53.0098C58.4689 52.2171 58.639 51.4053 58.7372 50.5836V49.4991L58.9917 50.1669C59.1587 50.7091 59.2442 51.2724 59.2455 51.8391C59.2662 52.3699 59.2377 52.9016 59.1604 53.4273C59.016 54.067 58.7883 54.6855 58.4827 55.2674C57.8607 56.4941 57.3522 57.1072 56.9572 57.1067L60.0075 57.0235C61.1247 56.8456 62.1761 56.3851 63.0593 55.6871L63.9907 56.6892L63.9064 59.6986C63.6228 60.3702 62.7463 60.706 61.277 60.706C59.0113 61.0929 56.7095 61.2329 54.4128 61.1234C52.7193 60.9766 51.1168 60.3032 49.8362 59.2002L47.8875 57.2724L50.0064 57.1052C50.4193 57.1364 50.8344 57.0859 51.2273 56.9568C51.6203 56.8277 51.9831 56.6226 52.2947 56.3534C51.7175 56.1846 51.1182 56.1002 50.5162 56.1031C49.9403 56.1285 49.3652 56.0376 48.8261 55.8362C48.287 55.6348 47.7952 55.327 47.3808 54.9316C46.9431 54.4392 46.599 53.873 46.365 53.2602L45.9419 52.2535L46.4501 52.5061C46.8686 52.7473 47.2416 53.0582 47.5525 53.425C47.7731 53.7589 48.0616 54.044 48.3996 54.2623C48.7781 54.4651 49.1749 54.633 49.5848 54.7637C50.3759 55.098 50.7717 54.9588 50.7722 54.3462L48.4839 52.1718C47.1843 51.4478 46.3086 50.9466 45.8568 50.6683C45.291 50.334 44.8952 49.2195 44.6693 47.3247C44.5171 46.6608 44.2288 46.0346 43.8222 45.4846C43.4539 45.026 43.2195 44.4768 43.1445 43.8964L43.4834 39.0477V41.3885C43.4694 42.0003 43.6154 42.6054 43.9073 43.1454C44.1223 43.6548 44.4076 44.1326 44.7552 44.565C45.179 45.3853 45.4926 46.2565 45.6881 47.1568C45.7367 47.3676 45.8296 47.5659 45.9609 47.7389C46.0921 47.912 46.2588 48.0558 46.4501 48.1612C46.9096 48.449 47.312 48.817 47.6376 49.2472C48.1854 50.0046 48.8412 50.6799 49.5848 51.2522L48.9914 49.9143C48.7134 49.1352 48.5704 48.3155 48.5682 47.4896L48.4839 45.9838C47.6822 44.8411 46.8046 43.7521 45.8568 42.7241C45.2956 42.1823 44.8615 41.5258 44.585 40.8008C44.4385 40.0282 44.3816 39.2416 44.4156 38.4563C44.4211 37.559 44.506 36.664 44.6693 35.7813L44.923 34.5235L44.8387 36.2018C44.8464 37.6735 45.3206 39.1061 46.1948 40.2987C46.986 41.5244 47.6923 42.1934 48.3137 42.3059V38.6257C48.3141 37.2844 48.3991 35.9444 48.5682 34.6135L48.8182 33.0253Z" fill="#5A873C"/>
<path fill-rule="evenodd" clip-rule="evenodd" d="M47.971 39.6287C48.1964 40.4092 48.168 40.8831 47.8859 41.0505C47.0948 40.1016 46.332 39.098 45.5976 38.0397C45.1024 37.361 44.8628 36.5332 44.9199 35.6989C44.9535 35.0452 45.1596 34.4114 45.5179 33.8604C46.0836 33.1918 46.6202 34.0835 47.1277 36.5354C47.3142 37.5898 47.5978 38.6251 47.9748 39.6287H47.971Z" fill="#7BB342"/>
<path fill-rule="evenodd" clip-rule="evenodd" d="M48.3128 33.4428L48.059 37.3756C47.6535 36.0659 47.37 34.7224 47.2119 33.3619C47.2119 32.9157 47.3813 32.6651 47.7202 32.6101C48.0582 32.5519 48.2568 32.8294 48.3128 33.4428Z" fill="#7BB342"/>
<path fill-rule="evenodd" clip-rule="evenodd" d="M50.093 36.703C49.867 35.3174 50.0432 33.897 50.6013 32.6061C51.5028 30.8792 52.181 30.4892 52.6359 31.4361C53.0882 32.3275 52.6923 33.0801 51.4484 33.6937C50.8826 34.028 50.4306 35.0311 50.0923 36.703H50.093Z" fill="#7BB342"/>
<path fill-rule="evenodd" clip-rule="evenodd" d="M50.093 38.6272C50.5 37.5338 51.1352 36.5369 51.9574 35.7011C52.3944 35.1898 52.7128 34.5904 52.8904 33.9449C53.0265 33.4752 53.226 33.0257 53.4837 32.6086C53.7666 32.3862 53.9076 32.5246 53.9076 33.0268C53.8524 33.6889 53.6178 34.3242 53.2284 34.8661C52.2729 36.1905 51.2253 37.4477 50.093 38.6287V38.6272Z" fill="#7BB342"/>
<path fill-rule="evenodd" clip-rule="evenodd" d="M45.0909 44.6463C44.6386 43.9785 44.3243 43.5036 44.1595 43.226C44.0262 43.0161 43.9418 42.7796 43.9122 42.5336C43.8826 42.2876 43.9087 42.0382 43.9886 41.8034C44.3836 40.8 44.9765 41.6088 45.7671 44.2296C46.1716 45.5491 46.9336 46.7345 47.9711 47.6579C48.7049 48.7168 48.9025 49.3578 48.5636 49.5812L48.3107 48.8249C48.1731 48.4741 47.9437 48.1655 47.646 47.9305C47.3483 47.6955 46.9928 47.5425 46.6157 47.487C46.2148 47.2342 45.9158 46.8515 45.7701 46.4047C45.4888 45.625 45.2627 45.0381 45.0932 44.6486L45.0909 44.6463Z" fill="#7BB342"/>
<path fill-rule="evenodd" clip-rule="evenodd" d="M51.1977 44.396C51.0448 43.0864 51.4094 41.7691 52.2158 40.7181C52.8377 39.993 53.2898 39.7139 53.5719 39.8808C53.8545 39.9928 53.8545 40.3833 53.5719 41.0523C53.4022 41.4986 53.2044 41.7486 52.9785 41.8026C52.6304 41.972 52.337 42.234 52.1314 42.5589C51.7734 43.147 51.4612 43.7611 51.1977 44.396Z" fill="#7BB342"/>
<path fill-rule="evenodd" clip-rule="evenodd" d="M52.5493 49.7449C52.2962 48.7525 52.4482 47.7018 52.9724 46.8188C53.2484 46.1459 53.4474 45.4448 53.5658 44.7284C53.6792 44.2821 53.8487 44.0605 54.074 44.0605C54.7533 44.0605 54.697 44.8128 53.9054 46.3174C53.6311 46.9751 53.3196 47.6172 52.9724 48.2406C52.7162 48.7034 52.5714 49.2181 52.5493 49.7449Z" fill="#7BB342"/>
<path fill-rule="evenodd" clip-rule="evenodd" d="M54.5845 53.2584C55.005 53.1483 55.3722 52.8944 55.6206 52.542C55.869 52.1896 55.9824 51.7616 55.9406 51.3343C55.9093 51.0224 55.9546 50.7077 56.0726 50.4166C56.1905 50.1256 56.3777 49.8668 56.6183 49.6621C57.0706 49.3843 57.3261 49.6629 57.3849 50.4979C57.4983 51.6126 56.9333 52.588 55.6899 53.424C55.6097 53.4839 55.5382 53.5544 55.4776 53.6335C55.2044 53.4579 54.9021 53.331 54.5845 53.2584Z" fill="#7BB342"/>
<path fill-rule="evenodd" clip-rule="evenodd" d="M60.6007 52.9234C61.1629 53.0908 61.3888 53.5928 61.2784 54.4292C61.1538 55.1268 60.8636 55.7854 60.4313 56.351C59.9228 56.9646 58.9341 57.1318 57.4653 56.8524L58.1445 56.5189C58.5396 56.5189 59.0481 55.8501 59.6701 54.5124C59.7962 54.0784 59.9665 53.658 60.1783 53.2577C60.2346 52.9774 60.3756 52.8654 60.6015 52.9219L60.6007 52.9234Z" fill="#7BB342"/>
<path fill-rule="evenodd" clip-rule="evenodd" d="M97.4666 44.563C94.8663 45.399 93.0303 46.2907 91.9586 47.2381C91.3388 47.6567 90.5846 47.8357 89.8397 47.741C89.407 47.7169 88.9737 47.7786 88.5656 47.9223C88.1574 48.0661 87.7826 48.2892 87.4632 48.5783C86.4021 49.7566 85.5686 51.1167 85.004 52.5912C84.5249 53.7734 83.9583 54.9192 83.309 56.0195C82.6612 56.858 82.0938 57.754 81.614 58.6961C80.7928 60.0876 79.5041 61.1519 77.9712 61.7046C76.9081 62.2852 75.8036 62.7884 74.6663 63.2104C73.9314 63.4883 72.6888 63.432 70.9383 63.0418C69.5348 62.8383 68.1191 62.7266 66.7006 62.7075C66.3363 62.7362 65.9717 62.6558 65.6544 62.4769C65.3371 62.298 65.0819 62.0289 64.9221 61.7046C64.6967 61.2584 63.6515 60.5616 61.7867 59.6142C60.487 58.8892 60.2892 58.2761 61.1933 57.7749C62.1329 57.2752 63.0391 56.7167 63.9063 56.1027C65.2686 54.9726 66.5695 53.7725 67.8037 52.5072C68.3659 51.9526 69.3546 51.9804 70.7697 52.5904C71.7862 53.1381 72.8677 53.5591 73.9894 53.8436C74.7959 53.8855 75.5957 53.6802 76.2793 53.256C77.0669 52.4235 77.6474 51.4218 77.975 50.3299C78.4438 48.7713 78.7838 47.1779 78.9915 45.5651C79.3303 43.8932 79.7262 42.9738 80.179 42.8069C83.6803 41.7481 85.8268 40.4372 86.6184 38.8741C87.4668 37.2022 87.9188 36.3383 87.9745 36.2823C88.4268 35.6687 88.9918 35.6409 89.6695 36.1991C90.302 36.8399 90.8697 37.54 91.3645 38.2895C91.5779 38.5856 91.857 38.8298 92.1804 39.0036C92.5039 39.1773 92.8632 39.2761 93.2311 39.2924H98.316L101.875 42.3872C102.327 42.665 102.92 43.9744 103.653 46.3154C103.032 45.8366 102.348 45.443 101.619 45.1454C100.352 44.462 98.8764 44.2543 97.4658 44.5608L97.4666 44.563Z" fill="#719B3F"/>
<path fill-rule="evenodd" clip-rule="evenodd" d="M96.8733 42.3046C99.698 43.0831 101.365 43.6679 101.873 44.0592C102.946 44.8952 103.539 45.6474 103.652 46.316C103.142 45.7794 102.447 45.4514 101.704 45.3971C101.082 45.5645 100.573 45.7039 100.177 45.8153C99.4435 45.9165 98.6965 45.769 98.0585 45.3971C97.8331 45.2862 96.7599 44.6173 94.8388 43.3906C93.5402 42.6101 92.7224 42.2758 92.3857 42.3878C92.195 42.4641 92.0218 42.5774 91.8763 42.721C91.7308 42.8645 91.616 43.0354 91.5386 43.2235C91.2592 43.7705 90.9474 44.3008 90.6048 44.8117C88.9101 47.7104 87.8369 49.1037 87.3851 48.9918C85.5197 48.602 84.3049 48.5183 83.7407 48.7407C83.3326 48.8865 82.9784 49.15 82.7242 49.497L82.6398 49.9145L83.3168 49.7458C83.6566 49.6349 84.4764 49.8583 85.776 50.4159C86.2504 50.6422 86.7891 50.7011 87.3023 50.5831C86.9198 50.8562 86.4882 51.0553 86.0305 51.1699C85.2509 51.2748 84.4571 51.1584 83.7422 50.8341C83.0645 50.6103 82.1037 50.9166 80.8598 51.7531C79.9562 52.3677 79.0805 53.5936 78.2327 55.431L80.3515 54.7624C80.6128 54.7234 80.8622 54.6282 81.082 54.4835C81.3018 54.3388 81.4866 54.1482 81.6233 53.9252C82.077 53.5554 82.6448 53.3492 83.2332 53.3405C83.7443 53.3405 84.0271 53.452 84.0818 53.6748H83.3152C83.0906 53.6748 82.7786 53.9252 82.3838 54.4311C82.1071 54.82 81.763 55.1577 81.3673 55.4287C81.0136 55.5517 80.6397 55.6084 80.2649 55.5958C80.1311 55.5804 79.9955 55.604 79.8751 55.6636C79.7547 55.7233 79.6546 55.8165 79.5872 55.9316L79.4178 56.936C79.3619 57.2128 79.3895 57.2967 79.5021 57.1848C79.7712 56.9691 80.0919 56.8254 80.4336 56.7673C81.0871 56.6628 81.7563 56.8124 82.3002 57.1848H81.4493C80.1507 57.1848 78.7665 57.9936 77.2966 59.611C76.619 60.3915 74.8394 61.0883 71.958 61.7015C70.351 62.1373 68.7047 62.4177 67.0426 62.5387C66.4206 62.5387 64.443 61.3959 61.1098 59.1104C60.8052 58.9389 60.5665 58.673 60.4306 58.3541C60.4237 58.255 60.455 58.157 60.518 58.0796C60.5811 58.0023 60.6714 57.9512 60.771 57.9366C61.393 57.7692 62.6642 56.9604 64.5848 55.5104L67.5508 52.6667L67.1277 54.3396C66.8633 55.4341 66.7488 56.5587 66.7873 57.6832C67.4151 57.0791 67.9316 56.3717 68.3136 55.5928C68.5627 55.0381 68.965 54.5638 69.4744 54.2239C69.9839 53.8841 70.5799 53.6925 71.1945 53.671C71.6198 53.6234 72.0468 53.7442 72.3819 54.0068C72.8342 54.2836 72.8902 54.3963 72.5529 54.3404C72.1326 54.3047 71.7095 54.3611 71.3139 54.5055C70.9183 54.65 70.56 54.879 70.2646 55.1761C69.6473 55.6527 69.1773 56.29 68.9077 57.0162L69.5869 56.9345C70.1139 56.8718 70.6282 56.7308 71.1125 56.5162C72.0146 56.0936 72.8214 55.4964 73.4851 54.7601C73.6299 54.5693 73.8252 54.4216 74.0496 54.3331C74.2739 54.2447 74.5187 54.2189 74.7569 54.2587C75.2654 54.3696 75.3502 54.481 75.0114 54.593C74.3247 54.7928 73.689 55.1344 73.1462 55.5951C72.4686 56.0988 72.2148 56.4036 72.3842 56.5162L73.8255 56.3476C74.9824 56.1 76.0245 55.4833 76.7907 54.593C77.0853 54.2035 77.2621 53.7396 77.3005 53.2551C77.4185 52.5951 77.6783 51.9677 78.0625 51.415C78.4575 50.8585 78.7452 50.235 78.9111 49.5757C79.0808 48.7397 79.2218 48.0152 79.3343 47.402C79.5078 46.3087 79.8208 45.2415 80.2657 44.2256C80.3742 43.9736 80.5496 43.7553 80.7734 43.5935C80.9973 43.4318 81.2613 43.3327 81.5375 43.3067C81.7899 43.2507 82.0517 43.2507 82.3041 43.3067C82.0571 43.3716 81.826 43.4853 81.6249 43.641C81.1685 43.8688 80.7859 44.218 80.5202 44.6491C80.2649 45.1423 80.1206 45.6841 80.097 46.2373V48.411C80.097 49.5812 79.9836 50.278 79.7567 50.5014C80.1175 50.24 80.4087 49.8961 80.6053 49.4993C80.9093 49.1244 81.1921 48.7333 81.4524 48.3278C81.759 47.8962 81.988 47.4157 82.1293 46.9074C82.4491 45.6614 83.0264 44.494 83.825 43.4783C84.2908 42.7575 84.8302 42.0857 85.4349 41.4734L85.0109 42.4762L83.4839 45.2315C83.0878 45.9545 83.0589 46.4279 83.3972 46.6518C84.0646 46.1764 84.6892 45.645 85.2639 45.0636C85.6022 44.8124 85.8896 44.5007 86.111 44.1447V43.225C86.0548 42.4999 86.0267 41.9151 86.0267 41.4704C85.9977 40.8397 86.1133 40.2108 86.3648 39.6303L87.5522 37.6231L87.044 39.5463C86.8226 40.0163 86.7341 40.5366 86.7879 41.0521C86.8462 41.3857 86.9305 41.9158 87.044 42.6404C87.1564 43.1985 87.3539 43.227 87.6366 42.7258C87.8075 42.3915 88.0597 41.8047 88.3986 40.9689C88.6302 40.5606 88.7477 40.0989 88.7389 39.631V37.9573C88.7702 37.495 88.8849 37.0419 89.0778 36.6194L89.3315 36.2852L89.2472 40.2989L90.6884 39.7135C91.1048 39.5968 91.55 39.6344 91.9403 39.8191C92.3306 40.0038 92.6389 40.3229 92.8073 40.7163C92.9197 40.9931 94.274 41.5225 96.8703 42.3046H96.8733Z" fill="#5A873C"/>
<path fill-rule="evenodd" clip-rule="evenodd" d="M82.2979 43.3081C81.5604 43.7649 81.08 44.9352 80.8567 46.8189C80.6808 48.0928 80.3096 49.3329 79.7559 50.4968C79.9118 49.9241 79.997 49.335 80.0096 48.7421C80.0028 47.5909 80.1163 46.4421 80.3484 45.3138C80.4175 44.7216 80.7215 44.1804 81.194 43.8088C81.3864 43.6539 81.6251 43.566 81.8732 43.5584L82.2948 43.3081H82.2979Z" fill="#7BB342"/>
<path fill-rule="evenodd" clip-rule="evenodd" d="M83.3127 46.4004C83.6677 45.2607 84.0924 44.1434 84.5845 43.0545L85.5175 40.8809L84.9241 43.8902C84.8682 44.226 84.8122 44.6707 84.7547 45.2288C84.6405 45.6751 84.4718 45.9254 84.2449 45.9806C83.9931 46.1137 83.7869 46.3174 83.6523 46.566C83.4837 46.7362 83.3702 46.6809 83.3127 46.4004Z" fill="#7BB342"/>
<path fill-rule="evenodd" clip-rule="evenodd" d="M88.1457 36.7855C88.244 36.6852 88.3575 36.6007 88.4823 36.5352L87.974 37.4541C87.6279 38.0366 87.452 38.7023 87.4658 39.3773C87.5285 39.8438 87.6716 40.2963 87.8889 40.7152C88.0901 41.0405 88.1799 41.421 88.145 41.8005C88.136 42.0683 88.0616 42.33 87.9282 42.5633C87.7947 42.7966 87.6061 42.9947 87.3784 43.1407C86.7688 42.1985 86.5554 41.0591 86.7835 39.9642C86.8418 39.7984 87.0973 39.0168 87.5501 37.6197C87.6625 37.291 87.8698 37.0018 88.1465 36.7878L88.1457 36.7855Z" fill="#7BB342"/>
<path fill-rule="evenodd" clip-rule="evenodd" d="M89.2456 40.2991L89.3299 38.1255C89.2551 37.7072 89.2843 37.2771 89.415 36.8723C89.5844 36.5933 89.7807 36.6454 90.0084 37.0395C90.2128 37.3256 90.3833 37.6339 90.5166 37.9584C90.5519 38.0978 90.615 38.2289 90.7022 38.344C90.7895 38.4591 90.8992 38.5558 91.0249 38.6285C91.221 38.7279 91.3918 38.8697 91.5245 39.0433C91.6573 39.217 91.7485 39.418 91.7915 39.6313C90.9241 39.7727 90.0725 39.9964 89.2487 40.2991H89.2456Z" fill="#7BB342"/>
<path fill-rule="evenodd" clip-rule="evenodd" d="M72.5514 54.3466C72.4939 54.6809 71.9872 54.988 71.0251 55.267C70.4312 55.4533 69.9024 55.8008 69.4995 56.2699C69.3275 56.4369 69.1715 56.6191 69.0334 56.8144C69.1745 56.5777 69.3294 56.3107 69.4995 56.0203C69.8313 55.4243 70.2952 54.9099 70.8564 54.5153C71.0259 54.3634 71.2299 54.2538 71.4511 54.1956C71.6724 54.1375 71.9046 54.1324 72.1282 54.181C72.2065 54.1787 72.2845 54.1923 72.3573 54.2209C72.4301 54.2495 72.4961 54.2925 72.5514 54.3474V54.3466Z" fill="#7BB342"/>
<path fill-rule="evenodd" clip-rule="evenodd" d="M72.3811 56.5193C72.4565 56.2538 72.5707 56.0006 72.7199 55.7675C73.0449 55.2218 73.5548 54.8069 74.1596 54.596C74.6927 54.352 75.2679 54.2104 75.8546 54.1785C76.0391 54.1724 76.2196 54.1238 76.3816 54.0364C76.5437 53.9491 76.6827 53.8255 76.7875 53.6756L77.5541 52.4224L77.469 52.9238C77.4227 53.3417 77.2775 53.7429 77.0451 54.0953C76.5521 54.9632 75.7754 55.6407 74.8419 56.0171C74.2624 56.2277 73.668 56.3958 73.0634 56.52H72.3857L72.3811 56.5193Z" fill="#7BB342"/>
<path fill-rule="evenodd" clip-rule="evenodd" d="M66.7874 57.6892C66.8095 56.8479 66.8946 56.0094 67.0419 55.1805C67.2115 53.6205 67.6636 52.7843 68.398 52.6719C68.9361 52.6557 69.4746 52.6843 70.0078 52.7573L70.5989 52.8405L69.9212 53.1748C69.4209 53.4014 68.9847 53.7458 68.651 54.1777C68.2013 54.9589 67.8051 55.7689 67.465 56.6024C67.1834 57.3274 66.9575 57.6899 66.7874 57.6899V57.6892Z" fill="#7BB342"/>
<path fill-rule="evenodd" clip-rule="evenodd" d="M79.8386 53.1758C80.0675 52.725 80.352 52.3038 80.6857 51.9219C80.9573 51.5527 81.3151 51.2534 81.7288 51.0495C82.1424 50.8456 82.5998 50.743 83.0622 50.7504C84.418 50.8058 85.2089 51.0284 85.4348 51.4182C84.5453 51.3601 83.6528 51.4741 82.8077 51.754C82.0301 51.9477 81.2871 52.2576 80.6045 52.6729C80.324 52.7999 80.0656 52.9696 79.8386 53.1758Z" fill="#7BB342"/>
<path fill-rule="evenodd" clip-rule="evenodd" d="M95.9404 64.378C95.0931 65.9945 93.5394 66.9981 91.2795 67.3888C88.2851 67.835 84.7544 68.281 80.6873 68.7267C77.7492 69.2814 75.8567 69.4762 75.0099 69.3114C73.654 69.0335 73.0323 67.3614 73.1448 64.2948C73.2582 61.5645 74.162 61.0072 75.8562 62.6226C77.8898 64.5194 79.1894 64.9377 79.7552 63.8773C81.8068 60.2232 83.5091 56.3886 84.84 52.4231C85.3865 50.9173 86.0673 49.4622 86.8746 48.0751C87.6642 46.9064 88.3135 45.8753 88.8225 44.9819C90.2929 42.5294 91.1972 40.9124 91.5355 40.1309C91.7866 39.1658 92.0977 38.2169 92.4669 37.2895C92.6278 36.8831 92.8911 36.5239 93.232 36.246C93.5729 35.9681 93.98 35.7806 94.4149 35.7013C95.3443 35.7572 96.2594 35.9544 97.1279 36.2859C97.919 36.5647 98.6253 36.0913 99.2468 34.8656C100.039 33.3025 101.112 32.4666 102.467 32.3577C103.881 32.3012 104.587 33.1372 104.585 34.8656C104.585 36.1477 104.106 38.5175 103.146 41.9748C102.017 46.0422 101.367 48.661 101.196 49.8313C101 51.4459 100.66 53.0403 100.18 54.596C99.8979 55.3765 99.2197 56.8538 98.1459 59.0279C97.3001 60.7644 96.5636 62.5506 95.9404 64.3765V64.378Z" fill="#719B3F"/>
<path fill-rule="evenodd" clip-rule="evenodd" d="M98.9081 35.3663C98.964 34.92 99.138 34.6977 99.4163 34.6977C99.7286 34.6911 100.04 34.6635 100.349 34.6152C100.687 34.56 100.743 34.672 100.519 34.9495C100.272 35.1823 100.045 35.4353 99.8403 35.7058C99.585 36.1386 99.4398 36.626 99.4171 37.1262C99.3545 37.7653 99.3264 38.4073 99.3328 39.0494C99.3027 39.5869 99.1272 40.1066 98.8245 40.5545C97.6945 41.8367 97.0728 42.5335 96.9594 42.6449C95.7868 43.8435 94.7104 45.1301 93.7396 46.493C92.9485 47.6068 92.8915 48.0527 93.5687 47.8309C94.1907 47.607 95.2363 46.6039 96.7056 44.8215C99.2477 41.6451 100.632 39.9167 100.858 39.6363C101.464 38.8221 102.329 38.2313 103.314 37.9581C102.03 39.4433 100.841 41.0069 99.7559 42.6396C97.4955 45.9845 95.7719 47.9078 94.5852 48.4094L92.0454 49.7466L91.6223 50.5029C91.5088 50.9491 92.0168 51.0328 93.1463 50.754C94.314 50.5186 95.451 50.1535 96.5354 49.6657C97.4511 49.0962 98.1854 48.2836 98.6543 47.3211L101.112 43.3127C100.377 46.8805 99.6427 48.9429 98.9088 49.5C98.5594 49.8515 98.1915 50.1845 97.8065 50.4976C96.9621 51.0093 96.0502 51.4036 95.0965 51.6691L90.8587 52.9238L90.6042 53.9259C90.7749 54.4841 91.7357 54.5126 93.4867 54.0114C96.0287 53.1744 97.3846 52.7277 97.5542 52.6712C98.175 52.4439 98.688 51.9973 98.9939 51.418L99.7605 50.1648L99.8433 52.0049C99.4999 53.2881 98.3967 54.0966 96.5339 54.4304C95.1497 54.6728 93.79 55.036 92.4709 55.5157C91.8687 55.7851 91.2999 56.1221 90.776 56.52C90.2125 56.9735 89.5826 57.3399 88.9077 57.6068L90.0101 57.8579C91.0618 57.9628 92.124 57.8777 93.1448 57.6068C94.7573 57.2391 96.4052 57.0429 98.0602 57.0215C95.6858 59.5294 93.3129 61.8709 90.9415 64.046C86.1406 68.2813 83.655 69.4241 83.4848 67.4743C83.4265 63.4604 83.3412 61.1194 83.2288 60.4513C83.2816 59.6459 83.5458 58.868 83.9954 58.1937L84.2913 57.6908C84.2831 57.957 84.4671 58.1521 84.8432 58.2762C85.3228 58.4932 85.8679 58.523 86.3688 58.3594C86.7076 58.2484 86.7076 57.9421 86.3688 57.4405C86.1042 57.0914 85.8215 56.7562 85.5217 56.4361C85.3324 56.1622 85.2162 55.8456 85.1836 55.5157L85.097 53.3421L85.606 54.5136C86.0021 55.2941 86.3971 55.6846 86.7912 55.6851C87.069 55.7177 87.3495 55.6512 87.582 55.4977C87.8145 55.3441 87.9837 55.1137 88.0591 54.8478L87.2159 52.672C86.5912 51.3289 86.5303 49.7966 87.0464 48.4094C87.1589 48.0197 87.1589 48.2431 87.0464 49.0795C86.933 50.2508 87.0178 50.752 87.3009 50.5831L87.8935 50.2495L88.1496 49.078C88.3182 48.4631 88.5727 48.1016 88.91 47.9905C89.2329 47.8618 89.5804 47.8048 89.9281 47.8233C89.9724 47.8051 90.0204 47.7974 90.0683 47.8008C90.1162 47.8043 90.1626 47.8188 90.2037 47.8431C90.2449 47.8675 90.2797 47.901 90.3053 47.9411C90.3309 47.9811 90.3467 48.0265 90.3513 48.0736C90.4072 48.1863 90.4632 48.0184 90.5207 47.5722L90.7752 46.3175C90.7758 46.147 90.8043 45.9777 90.8595 45.8161C90.8931 45.6432 90.9896 45.4884 91.1308 45.3808C91.2719 45.2731 91.4481 45.22 91.6261 45.2315H92.6419C92.7608 45.0303 92.8303 44.8044 92.845 44.572C92.8596 44.3396 92.8189 44.107 92.7262 43.8928L92.4724 43.0571C92.6421 42.9462 92.6421 42.5279 92.4724 41.8024L92.3881 41.1346L92.2172 40.7171L92.3881 39.2113L92.8964 40.7171C93.2367 41.7759 93.5173 42.3613 93.745 42.4717C93.8405 42.5095 93.9272 42.5659 94 42.6377C94.0727 42.7094 94.1299 42.795 94.1682 42.8892L94.2525 42.6381L94.3368 40.9659C94.3482 40.7695 94.3073 40.5736 94.2181 40.3977C94.1289 40.2218 93.9946 40.0719 93.8286 39.9631C93.7151 39.9079 93.8845 39.7967 94.3368 39.6288C95.0196 39.3917 95.733 39.2509 96.4557 39.2105C96.9095 39.239 97.3651 39.2111 97.8118 39.1273C98.0519 38.9361 98.2454 38.6941 98.3781 38.4192C98.5108 38.1443 98.5792 37.8436 98.5784 37.5391C98.6451 36.8088 98.7583 36.0833 98.9173 35.367L98.9081 35.3663Z" fill="#5A873C"/>
<path fill-rule="evenodd" clip-rule="evenodd" d="M98.3153 52.088C95.9976 53.0913 94.3877 53.7324 93.4857 54.0112C92.7439 54.3067 92.0989 54.7978 91.6213 55.4308C91.3165 55.7761 91.0331 56.1393 90.7727 56.5184H91.6213C92.733 56.6128 93.837 56.7803 94.9261 57.0198C96.8462 57.3551 95.603 59.6966 91.1966 64.0443C87.0161 68.1677 85.0109 68.4463 85.1811 64.8801C85.3063 63.2744 85.1332 61.6597 84.6705 60.1154C84.2371 59.2013 84.0338 58.1974 84.0779 57.1892L84.9695 53.7586C85.1544 54.1538 85.397 54.5202 85.6893 54.8462C86.5367 55.8496 87.1581 56.3512 87.5537 56.3512C87.1574 56.1841 86.8768 55.4043 86.7051 54.012C86.5978 52.8139 86.6261 51.6077 86.7894 50.4158L87.0454 48.4093L87.5537 50.6669C87.9498 52.1704 88.4018 52.9229 88.9098 52.9244C89.4181 52.9244 89.6718 52.6166 89.6718 52.0055C89.5668 51.1734 89.5103 50.3361 89.5024 49.4976L89.6718 43.8949C90.1803 48.7998 90.7453 50.388 91.3668 48.6596C91.8191 47.322 92.1584 46.3746 92.3848 45.8175C92.8878 44.6951 93.513 43.6301 94.2492 42.641C94.8492 41.6736 95.6247 40.8235 96.5367 40.1331C96.9507 39.8724 97.2745 39.4936 97.4651 39.047L97.6345 37.9595C97.8042 38.6845 97.4084 39.6876 96.447 40.9688L93.9479 44.8161C94.2635 44.7007 94.5898 44.6166 94.9223 44.565C96.5035 44.2862 98.0283 43.0045 99.4966 40.72C98.8417 42.251 97.8923 43.6423 96.7008 44.8169C95.5719 45.6398 94.5219 46.5631 93.5639 47.5751C93.0944 48.0973 92.669 48.6566 92.2921 49.2473C92.0105 49.9174 92.4344 50.2237 93.5639 50.1662C94.1637 50.0919 94.7582 49.9805 95.3439 49.8327C95.9678 49.6454 96.5451 49.3317 97.0389 48.9115C96.1146 49.9867 94.914 50.7966 93.5631 51.256C92.855 51.3908 92.2219 51.7779 91.7846 52.3436C91.503 52.8982 91.644 53.1768 92.2077 53.1793C93.381 53.1345 94.546 52.9656 95.6827 52.6756L98.3137 52.091L98.3153 52.088Z" fill="#769E3F"/>
<path fill-rule="evenodd" clip-rule="evenodd" d="M95.3493 36.1177C95.4053 36.1177 95.4628 36.2561 95.5188 36.5352C95.5101 36.877 95.5676 37.2174 95.6882 37.538C95.8502 37.7999 96.0732 38.0198 96.3386 38.1797C96.6041 38.3395 96.9043 38.4345 97.2145 38.4569H95.8561C95.2341 38.4569 94.7821 38.011 94.4999 37.119C94.4667 36.9764 94.3934 36.846 94.2884 36.7426C94.1835 36.6392 94.0512 36.567 93.9066 36.5344C93.7372 36.5344 93.7088 36.424 93.8223 36.2001C93.8953 36.0946 93.9996 36.0138 94.1209 35.9688C94.2421 35.9239 94.3745 35.917 94.4999 35.949L95.3486 36.1177H95.3493Z" fill="#7BB342"/>
<path fill-rule="evenodd" clip-rule="evenodd" d="M92.8901 37.1217C93.0796 38.4505 93.3632 39.7646 93.7387 41.0544C93.7486 41.5779 93.8797 42.0922 94.122 42.558C93.6717 42.2397 93.2839 41.8432 92.9775 41.388C92.6907 40.8166 92.5456 40.1862 92.5543 39.5486L92.47 38.2939C92.5259 37.9597 92.5834 37.6518 92.6394 37.375C92.7518 36.8159 92.8364 36.7322 92.8931 37.1239L92.8901 37.1217Z" fill="#7BB342"/>
<path fill-rule="evenodd" clip-rule="evenodd" d="M91.3639 41.9702C91.5027 42.9441 91.9475 43.8506 92.6357 44.5621H92.0431C91.5349 44.5621 90.996 44.1998 90.4333 43.4745C90.3198 43.2532 90.4328 42.752 90.7721 41.971C91.1702 41.2449 91.3675 41.2447 91.3639 41.9702Z" fill="#7BB342"/>
<path fill-rule="evenodd" clip-rule="evenodd" d="M101.958 33.5261C103.201 32.8021 103.511 33.6103 102.89 35.9508C102.72 36.6209 102.551 36.9824 102.381 37.0384C101.93 37.2074 101.503 37.4326 101.109 37.7085L99.2451 39.3799C99.5344 38.396 99.7328 37.3883 99.8377 36.3691C99.9337 35.7619 100.177 35.1865 100.546 34.6915C100.915 34.1965 101.399 33.7965 101.958 33.5254V33.5261Z" fill="#7BB342"/>
<path fill-rule="evenodd" clip-rule="evenodd" d="M97.9765 41.4705C98.992 40.577 99.3587 40.5485 99.0766 41.385C98.7896 42.2837 98.2272 43.0725 97.4667 43.6426C95.9402 44.9802 95.4314 45.2588 95.9404 44.4783C96.1719 44.1175 96.3435 43.7225 96.4487 43.3083C96.8449 42.6121 97.362 41.99 97.9765 41.4705Z" fill="#7BB342"/>
<path fill-rule="evenodd" clip-rule="evenodd" d="M98.822 44.2286L100.77 41.0521C101.537 39.7865 102.479 38.6324 103.568 37.623L103.314 37.9588C102.957 39.1905 102.504 40.3929 101.958 41.5551C101.487 42.5976 100.89 43.5801 100.18 44.4812C98.9372 46.7652 97.8921 48.1866 97.0442 48.7452C96.5186 49.0835 95.8792 49.2041 95.2642 49.081L94.5022 48.8299L96.6211 47.0753C96.9017 46.793 97.6356 45.8443 98.8228 44.2294L98.822 44.2286Z" fill="#7BB342"/>
<path fill-rule="evenodd" clip-rule="evenodd" d="M100.263 45.6496C100.885 44.8691 101.196 44.674 101.195 45.0643C101.145 45.5159 101.06 45.9632 100.941 46.4022C100.828 47.5734 100.038 49.0228 98.5682 50.7502C97.8916 51.6411 97.3269 52.0036 96.874 51.8377L96.3643 51.2531L98.6526 48.8269C99.4135 47.8936 99.9628 46.8102 100.263 45.6496Z" fill="#7BB342"/>
<path fill-rule="evenodd" clip-rule="evenodd" d="M95.1782 42.724C93.7121 45.101 92.5725 47.6595 91.7891 50.3324C91.393 52.1173 90.7728 54.7369 89.9285 58.1912C89.5523 60.0177 89.0136 61.808 88.3187 63.5412C88.0587 64.0961 87.6693 64.5824 87.1823 64.9603C86.6953 65.3382 86.1245 65.597 85.5167 65.7156C84.2171 65.937 83.8782 64.7385 84.5002 62.1201C85.5735 61.6159 86.7032 59.9433 87.8894 57.1021C88.9626 54.094 90.1209 51.2796 91.3644 48.6587C92.4651 46.4719 93.7407 44.3751 95.179 42.3882C95.7785 41.4807 96.3434 40.6581 96.8739 39.9204C96.3174 40.7367 95.7524 41.6695 95.179 42.7187L95.1782 42.724Z" fill="#D2D6A7"/>
<path fill-rule="evenodd" clip-rule="evenodd" d="M87.8059 58.0236L89.7539 51.9218C90.611 49.4987 91.7796 47.1941 93.2312 45.0644C94.0785 43.7822 94.8689 42.6671 95.6023 41.7192C95.3207 42.11 94.9818 42.5842 94.5858 43.1418C93.9062 44.0794 93.2834 45.0557 92.7206 46.0657C91.5889 48.5743 90.6821 51.1758 90.0107 53.8405C89.1071 57.8 88.3725 60.0858 87.8067 60.6979C87.4119 61.1441 87.241 61.0314 87.2985 60.3636C87.3255 59.5585 87.4976 58.7646 87.8067 58.0191L87.8059 58.0236Z" fill="#DBDDBB"/>
<path fill-rule="evenodd" clip-rule="evenodd" d="M58.3945 51.9201C58.9759 51.9232 59.5513 52.0364 60.0895 52.2537C60.4845 52.3111 60.9366 51.8652 61.4456 50.9158C61.8137 50.1342 62.2382 49.3797 62.7158 48.6582C62.8479 48.47 63.026 48.3177 63.2335 48.2154C63.4411 48.1131 63.6714 48.064 63.9033 48.0728H66.3672C66.7667 48.0517 67.1636 47.9958 67.5531 47.9057C67.8331 47.6438 68.1462 47.4186 68.4845 47.2356C68.8884 47.0072 69.2592 46.7261 69.5869 46.3999C69.8695 46.2325 70.2934 46.2887 70.8587 46.5685C71.3488 46.8163 71.8045 47.1251 72.2148 47.4874C72.3062 47.5667 72.4196 47.617 72.5403 47.6318C72.661 47.6467 72.7834 47.6254 72.8917 47.5706C73.1439 47.5184 73.4006 47.4905 73.6583 47.4874C73.8837 47.432 74.2225 47.0695 74.6748 46.3999C75.0699 45.453 75.3239 44.8681 75.4368 44.6453C75.5503 44.31 76.1155 44.1428 77.1326 44.1438C77.9799 44.1438 78.4595 43.949 78.5715 43.5592C78.629 43.4465 78.9678 43.6424 79.588 44.1438C80.757 44.9109 82.0042 45.5552 83.3091 46.0663C85.0038 46.7894 86.0205 47.4025 86.3594 47.9057C86.5273 48.0679 86.7262 48.1958 86.9445 48.2818C87.1627 48.3679 87.3961 48.4105 87.6312 48.4071C88.1417 48.4071 88.7611 48.9925 89.4963 50.1617C90.5239 51.7274 91.189 53.4973 91.4442 55.3454C91.5025 55.7916 91.5595 56.4322 91.6152 57.2672C91.6325 57.4046 91.6221 57.5441 91.5845 57.6776C91.5469 57.811 91.4829 57.9358 91.3961 58.0447C91.3094 58.1536 91.2017 58.2445 91.0791 58.3121C90.9566 58.3798 90.8217 58.4228 90.6822 58.4387C82.2082 60.9481 75.8807 61.8965 71.6996 61.2839C70.6264 61.1165 67.0103 61.0608 60.8515 61.1168C56.6709 61.1722 54.4394 60.5868 54.1567 59.3606C53.8164 58.021 54.2398 56.5444 55.427 54.931C56.2847 53.809 57.2817 52.7975 58.3945 51.9201Z" fill="#5A873C"/>
<path fill-rule="evenodd" clip-rule="evenodd" d="M78.9922 47.3218C79.5947 47.8703 80.1608 48.4564 80.6872 49.0764C80.9718 49.41 81.3202 49.6849 81.7126 49.8854C82.105 50.0859 82.5336 50.2081 82.974 50.2449C83.1449 50.2449 83.8494 50.1595 85.0929 49.9938C85.3838 49.9353 85.6837 49.9349 85.9748 49.9925C86.2659 50.0502 86.5423 50.1648 86.7878 50.3296C87.1839 50.6639 87.7489 51.0816 88.4828 51.5828C88.9816 51.8931 89.3907 52.3253 89.6702 52.8375C90.0972 53.6468 90.4656 54.4848 90.7726 55.3454C88.7391 52.9485 87.2989 51.6375 86.452 51.4127C85.9504 51.3027 85.4381 51.2469 84.9242 51.2463C84.2465 51.3017 83.6251 51.3295 83.0598 51.3295C82.5778 51.3524 82.0947 51.3245 81.6186 51.2463C81.0725 51.0063 80.5602 50.6974 80.0946 50.3274C79.1885 49.7125 78.6802 49.3797 78.5668 49.323C78.1283 49.2938 77.6898 49.3805 77.2965 49.5741C76.5255 49.9113 75.811 50.3625 75.1776 50.912C74.4437 51.5266 74.0484 51.9726 73.9917 52.2499C73.7091 53.4211 74.2457 53.8674 75.6016 53.5885C76.3739 53.4217 77.1166 53.1415 77.8048 52.7574C78.1516 52.6494 78.5208 52.6311 78.8769 52.7042C79.233 52.7773 79.5641 52.9394 79.8386 53.1748L82.4657 55.0966C83.2568 55.5983 83.7089 55.8774 83.8218 55.9338C84.2334 56.056 84.6677 56.0844 85.0921 56.017C86.1281 56.0287 87.1238 56.4151 87.8902 57.1031C87.3817 57.3269 86.1955 57.2155 84.3316 56.7688C83.4416 56.5526 82.5866 56.2151 81.7911 55.7659C81.2589 55.408 80.6489 55.1785 80.0103 55.0959C78.2594 54.4837 77.1861 54.3166 76.7906 54.5944C75.9291 54.9599 75.0135 55.1857 74.0791 55.263L75.774 55.4301C76.7528 55.5181 77.6894 55.8645 78.4855 56.433C78.5428 56.4905 78.9386 56.9087 79.673 57.6877C80.0598 58.021 80.5267 58.2512 81.0291 58.3563C82.3905 58.6658 83.7858 58.806 85.1825 58.7737C84.357 59.5612 83.2757 60.0352 82.1299 60.1117C74.7297 59.3866 69.9842 59.0526 67.8934 59.1095C65.2358 59.4438 63.2864 59.6664 62.045 59.7774C59.7845 60.0562 58.9936 59.8336 59.6723 59.1095C60.4647 58.0581 61.4386 57.1526 62.5494 56.4345C63.7055 55.6194 64.9579 54.9462 66.2789 54.4295C67.8039 53.8714 68.6797 53.342 68.9061 52.8413C68.8563 51.9291 69.1599 51.0323 69.7555 50.3327C70.2319 49.7728 70.8443 49.3412 71.5355 49.078C71.9303 48.9093 72.296 48.7709 72.6363 48.6597L71.7869 49.4962C71.2532 49.9363 70.9182 50.5673 70.8555 51.2508C70.876 51.5321 70.8472 51.8148 70.7704 52.0865L71.6191 51.6683C73.2034 51.1666 74.1637 50.5535 74.5 49.829C74.7253 49.1037 74.8963 48.5758 75.0097 48.2407C75.0731 47.978 75.2247 47.7442 75.4399 47.5774C75.6551 47.4105 75.9212 47.3205 76.1949 47.3218C76.7378 47.2831 77.2763 47.1991 77.8048 47.0707C78.2175 47.0186 78.636 47.1072 78.9907 47.3218H78.9922Z" fill="#4F7835"/>
<path fill-rule="evenodd" clip-rule="evenodd" d="M60.2619 48.6597L62.127 49.9968L61.3604 51.5026C60.8647 52.6754 60.5502 53.9149 60.4275 55.1798C60.3316 55.7973 60.365 56.4276 60.5254 57.0319C60.6859 57.6362 60.97 58.2017 61.3604 58.6936C61.967 59.4578 62.8458 59.9654 63.8181 60.1131C65.207 60.1415 66.5958 60.0578 67.9708 59.8628C70.0054 59.6944 70.994 59.5267 70.9368 59.3599C73.1998 52.2249 74.3594 48.4068 74.4156 47.9057C74.4042 47.607 74.4938 47.313 74.6701 47.0699L74.8396 46.8188L76.027 49.8297C76.8744 52.0583 77.4672 53.7582 77.8055 54.9294C78.2016 56.5459 76.224 58.3862 71.8728 60.4504C67.3534 62.5681 63.8508 62.9581 61.365 61.6204C59.1046 60.3947 58.2572 57.8588 58.823 54.0128L60.2619 48.6627V48.6597Z" fill="#52702F"/>
<path fill-rule="evenodd" clip-rule="evenodd" d="M81.1941 36.5356L83.313 35.7793L84.1616 36.9508C84.6699 37.6186 84.9527 37.7071 85.0087 37.2011C85.0659 36.589 85.8857 36.227 87.468 36.1151C88.9945 36.0042 89.9553 36.199 90.3504 36.6997C90.8161 37.2806 91.1872 37.9294 91.4505 38.623C90.9278 39.0666 90.2739 39.3319 89.5861 39.3793C89.2198 39.3361 88.8492 39.4103 88.5289 39.5909C88.2087 39.7715 87.9558 40.0489 87.8076 40.3822L85.9424 44.9805L85.6887 44.8973L83.3988 43.6448C82.9251 44.2329 82.385 44.7657 81.789 45.2331C80.7023 46.2377 79.29 46.8302 77.8027 46.9053C76.9543 46.9053 76.5022 46.7376 76.4465 46.4023L81.1941 36.5356Z" fill="#52702F"/>
<path fill-rule="evenodd" clip-rule="evenodd" d="M59.5844 46.7787C58.5674 46.2437 58.0589 45.8674 58.0589 45.6495L57.1274 39.1264L58.229 36.4521C59.5862 36.9412 60.9168 37.4993 62.2154 38.1243C62.418 38.8307 62.5037 39.5647 62.4691 40.2979C62.5328 41.0211 62.5328 41.7484 62.4691 42.4716C62.3884 42.8973 62.2746 43.3163 62.1287 43.7248C61.9018 44.4498 61.6478 44.8123 61.3667 44.8123C60.9522 44.6001 60.5789 44.3172 60.2644 43.9766C59.8121 43.5869 59.5857 43.6146 59.5852 44.0598V46.7825L59.5844 46.7787Z" fill="#52702F"/>
<path fill-rule="evenodd" clip-rule="evenodd" d="M70.6012 45.7331L70.6863 48.0723C70.7389 49.0619 70.9983 50.03 71.4483 50.916L69.4145 52.6706L67.1262 45.7331L66.5328 47.6548C66.194 48.604 65.8268 48.8248 65.432 48.3249C65.0048 47.6842 64.8523 46.9026 65.0081 46.1513C65.2335 45.0925 66.0527 43.8108 67.4658 42.3062C69.1012 40.6343 70.43 39.9375 71.4521 40.2158C71.9416 40.291 72.3941 40.5177 72.7445 40.8631C73.0949 41.2085 73.325 41.6548 73.4016 42.1376C73.486 42.6322 73.4695 43.1385 73.3532 43.6268C73.2368 44.1151 73.0229 44.5756 72.7239 44.9813C72.2701 45.7053 71.7876 46.0386 71.2766 45.9811L70.5974 45.73L70.6012 45.7331Z" fill="#52702F"/>
<path fill-rule="evenodd" clip-rule="evenodd" d="M96.8733 47.4893L98.3965 45.3989C99.8086 49.7456 100.063 52.7278 99.1585 54.3452C98.2539 55.9083 97.2367 56.6051 96.1067 56.4357L96.6172 47.0719L96.8695 47.4893H96.8733Z" fill="#52702F"/>
<path fill-rule="evenodd" clip-rule="evenodd" d="M58.7356 31.603C59.2632 30.6098 60.0177 29.7512 60.9395 29.0951C61.1961 28.9503 61.4932 28.8912 61.7866 28.9264L64.5832 29.2622L64.3287 35.6152C64.2273 38.1495 63.887 40.6691 63.3122 43.1411C59.4705 41.8015 57.1257 40.6307 56.2778 39.6289L58.7356 31.603Z" fill="#D66E40"/>
<path fill-rule="evenodd" clip-rule="evenodd" d="M64.6699 29.2622C64.1866 29.3988 63.7481 29.658 63.3981 30.0139C62.0385 31.1233 60.9152 32.4874 60.0932 34.0276C58.6239 36.592 57.8612 38.8216 57.8049 40.7164C57.4661 40.8822 56.9576 40.5197 56.2794 39.6288C55.9477 39.0781 55.4815 38.6181 54.9233 38.2909L54.2456 38.0398C54.324 35.9059 54.8131 33.8061 55.6868 31.8525C56.4421 30.1765 57.6071 28.7117 59.0775 27.5892C59.8006 27.0062 60.5653 26.4754 61.3658 26.001L62.3823 26.7573C63.2653 27.4787 64.0362 28.3239 64.6706 29.2659L64.6699 29.2622Z" fill="url(#paint1_linear_2454_870)"/>
<path fill-rule="evenodd" clip-rule="evenodd" d="M63.2281 41.8032L61.6182 37.6231C60.8843 35.339 61.1667 33.6391 62.4653 32.5233C63.0331 32.0791 63.4289 31.9677 63.6528 32.189C63.9344 32.4114 64.0473 33.2196 63.9916 34.6137C63.8781 36.62 63.6226 39.0164 63.225 41.8032H63.2281Z" fill="#AD5630"/>
<path fill-rule="evenodd" clip-rule="evenodd" d="M62.9734 42.139C63.1188 42.4227 63.1782 42.7417 63.1444 43.0579L61.3659 42.4732L58.2305 40.9674C58.3065 40.1625 58.5066 39.3736 58.8238 38.6282C58.9964 38.1474 59.2875 37.7164 59.6709 37.3742C60.1222 37.04 60.4891 37.04 60.7718 37.3742C61.2787 37.8749 62.0126 39.4632 62.9734 42.139Z" fill="#AD5630"/>
<path fill-rule="evenodd" clip-rule="evenodd" d="M63.0592 35.3664L62.8898 36.3693L62.5479 34.0285C62.6613 33.8614 62.8024 33.9718 62.971 34.3628C63.0801 34.6856 63.1098 35.0293 63.0576 35.3657L63.0592 35.3664Z" fill="#AB782A"/>
<path fill-rule="evenodd" clip-rule="evenodd" d="M60.4313 40.3824C59.923 40.4376 59.5842 40.3272 59.4148 40.0466C59.3576 39.9547 59.3347 39.846 59.3501 39.7393C59.3655 39.6326 59.4182 39.5345 59.4991 39.462C59.6125 39.4068 59.8103 39.5452 60.0924 39.8795C60.2043 40.0481 60.3178 40.2175 60.4313 40.3824Z" fill="#AB782A"/>
<path fill-rule="evenodd" clip-rule="evenodd" d="M62.9732 34.7801C62.8608 36.0068 62.8045 35.9511 62.8045 34.6129C62.747 34.4458 62.7754 34.3618 62.8889 34.3618C63.0023 34.3618 63.0307 34.501 62.9732 34.7801Z" fill="#E0BB82"/>
<path fill-rule="evenodd" clip-rule="evenodd" d="M63.5668 29.819L62.7197 30.4875C62.2669 29.819 61.8713 29.2618 61.533 28.8161C60.5727 27.8677 60.0925 27.2546 60.0925 26.9768C60.1482 26.6425 60.4306 26.6425 60.9396 26.9768C61.4675 27.2719 61.9289 27.67 62.2957 28.1468C62.8568 28.5884 63.2943 29.1639 63.5668 29.819Z" fill="url(#paint2_linear_2454_870)"/>
<path fill-rule="evenodd" clip-rule="evenodd" d="M72.5522 41.9712C73.4558 43.0849 73.5968 44.088 72.9754 44.9805C72.416 45.397 71.7838 45.7085 71.1102 45.8994L69.2458 46.068L69.5004 47.3227C69.6254 47.9812 69.8863 48.6073 70.267 49.1621C70.7193 49.6638 70.9451 49.9701 70.9446 50.081L69.4191 50.9999C68.8533 50.053 68.2884 49.0776 67.7241 48.0738C67.051 46.9446 66.4563 45.7716 65.9441 44.563C66.0019 43.6412 66.3582 42.7621 66.9606 42.0551C67.2965 41.5586 67.6648 41.0842 68.063 40.6348L69.843 40.718C70.8686 40.8076 71.829 41.252 72.5545 41.9727L72.5522 41.9712Z" fill="#7A6227"/>
<path fill-rule="evenodd" clip-rule="evenodd" d="M64.416 48.6601L64.587 44.5632C64.8732 43.9064 65.2431 43.2883 65.6878 42.7239C66.4227 41.8879 66.7051 42.4728 66.5349 44.4785C66.4225 46.4857 66.0272 47.7966 65.349 48.4113C65.2334 48.5358 65.0844 48.6254 64.9193 48.6699C64.7542 48.7143 64.5797 48.7117 64.416 48.6624V48.6601Z" fill="#7A6227"/>
<path fill-rule="evenodd" clip-rule="evenodd" d="M72.4631 43.4744C72.5631 43.8044 72.56 44.1565 72.4541 44.4847C72.3483 44.8129 72.1446 45.1021 71.8698 45.3144C70.923 45.9361 69.7705 46.1754 68.65 45.983L68.8194 47.0706C69.001 47.7261 69.2274 48.3686 69.4971 48.9939L70.1748 50.1631L68.6493 50.9194C68.2106 51.1327 67.8101 51.4149 67.4633 51.7551L67.0402 49.5815L65.9378 46.7393L65.1804 48.6596C64.5584 49.6629 63.8521 49.6352 63.0615 48.5764C62.3276 47.4051 62.5249 45.8713 63.6533 43.975C64.3085 42.6983 65.428 41.7124 66.7879 41.2145C67.3743 40.9927 68.0009 40.8931 68.6283 40.9218C69.2556 40.9506 69.8701 41.1072 70.4331 41.3817C70.9042 41.5658 71.3294 41.8481 71.6798 42.2093C72.0301 42.5705 72.2973 43.002 72.4631 43.4744Z" fill="#DED8A0"/>
<path fill-rule="evenodd" clip-rule="evenodd" d="M68.6525 45.984C68.5266 45.7193 68.4408 45.4377 68.398 45.1483C68.2846 44.5937 68.398 44.2317 68.7384 44.0622C69.1334 43.8384 69.4439 43.8106 69.6698 43.9791C69.8952 44.09 69.8952 44.3126 69.6698 44.6469C69.5088 44.8522 69.3069 45.0229 69.0765 45.1483C68.8511 45.261 68.7093 45.5378 68.6533 45.984H68.6525Z" fill="#968F48"/>
<path fill-rule="evenodd" clip-rule="evenodd" d="M65.9395 46.9874C65.8275 46.8187 65.6282 46.7915 65.3469 46.9042C65.0774 47.0071 64.7846 47.0359 64.4998 46.9874C64.2169 46.9322 64.1878 46.7363 64.4147 46.402C64.4633 46.2371 64.5637 46.0916 64.7015 45.9865C64.8392 45.8815 65.0072 45.8222 65.1813 45.8174C65.63 45.8174 65.8827 46.2074 65.9395 46.9874Z" fill="#968F48"/>
<path fill-rule="evenodd" clip-rule="evenodd" d="M80.5178 35.533L85.0078 33.7769C89.1321 33.9992 91.308 34.306 91.5354 34.6973C91.7629 35.0885 91.791 36.0922 91.6198 37.7081C91.5063 38.0979 91.1388 38.3479 90.5174 38.4584C89.9468 38.5003 89.3733 38.4437 88.8224 38.2912L87.8059 37.9569L87.129 40.4648C86.7638 41.7457 86.1915 42.9601 85.434 44.0611C85.1321 43.7275 84.755 43.4685 84.3332 43.3048C84.0072 43.1889 83.656 43.1601 83.3152 43.2216L82.7226 43.3048L82.2135 41.9706L84.9235 40.0474L85.0929 36.5366L84.0779 37.6219C83.8812 37.842 83.6274 38.0052 83.3437 38.0938C83.0601 38.1824 82.7574 38.1931 82.4681 38.1248L81.5328 37.7906L80.5178 35.533Z" fill="#7A6227"/>
<path fill-rule="evenodd" clip-rule="evenodd" d="M84.1607 36.2856C82.3526 37.177 81.1664 37.0651 80.6022 35.9498C80.4123 35.4674 80.3515 34.9449 80.4258 34.4327C80.5 33.9204 80.7068 33.4357 81.0261 33.0251C81.6124 31.9829 82.5837 31.204 83.7376 30.8508C86.6757 29.9593 88.8511 30.3219 90.2637 31.9383C91.0718 32.7448 91.5535 33.8147 91.6182 34.9469C91.6745 35.9503 91.4762 36.6193 91.0234 36.9541C90.742 37.1757 90.0904 37.1757 89.0754 36.9541L87.5491 36.5359L85.3459 42.4714C84.7624 42.2007 84.1263 42.058 83.4815 42.0531L82.2097 41.9699C82.9163 40.8119 83.4851 39.5772 83.9047 38.2905L84.1607 36.2856Z" fill="#DED8A0"/>
<path fill-rule="evenodd" clip-rule="evenodd" d="M84.1607 35.9492C83.7084 35.1133 83.2845 34.6673 82.8889 34.6113C82.4929 34.6113 82.4364 34.3608 82.7195 33.8596C82.7532 33.7624 82.8074 33.6733 82.8785 33.5983C82.9497 33.5233 83.0362 33.4641 83.1323 33.4245C83.2284 33.385 83.3319 33.366 83.436 33.3689C83.5401 33.3718 83.6423 33.3965 83.736 33.4413C84.4152 33.7202 84.5565 34.5561 84.16 35.9492H84.1607Z" fill="#968F48"/>
<path fill-rule="evenodd" clip-rule="evenodd" d="M87.5513 36.202L88.2305 34.8641C88.7926 34.0282 89.3576 33.7496 89.9254 34.0284C90.5448 34.3075 90.7165 34.6698 90.4337 35.1145C90.2935 35.3202 90.1041 35.4888 89.8824 35.6054C89.6606 35.722 89.4132 35.783 89.1619 35.7831C88.8844 35.7035 88.6005 35.6476 88.3133 35.6159C88.1461 35.6167 87.8901 35.8118 87.5513 36.202Z" fill="#968F48"/>
<path fill-rule="evenodd" clip-rule="evenodd" d="M56.4482 35.8662L57.8879 36.2844C58.8487 36.6742 59.1597 37.1761 58.8208 37.7902C58.6074 38.2599 58.2418 38.6462 57.7815 38.8884C57.3211 39.1306 56.7922 39.2149 56.278 39.1281L56.1929 44.1447H54.4144V43.3097C54.4223 42.5442 54.3074 41.7823 54.074 41.0521L53.7352 39.4639L52.8881 39.9653C52.4324 40.231 51.9248 40.3983 51.3987 40.4562C50.8726 40.5141 50.3401 40.4612 49.8363 40.3011C49.4887 40.203 49.1766 40.0092 48.9365 39.7426C48.6963 39.476 48.538 39.1474 48.4801 38.7953C48.3918 38.2302 48.4461 37.6523 48.6381 37.1128C48.8301 36.5732 49.1539 36.0887 49.581 35.7021C50.4065 34.8724 51.3977 34.2209 52.4918 33.7889C53.5859 33.357 54.7591 33.1539 55.9369 33.1926L56.2757 33.9444L56.1063 34.7007C56.015 34.9036 55.9993 35.1317 56.0618 35.345C56.1244 35.5582 56.2612 35.7427 56.4482 35.8662Z" fill="#7A6227"/>
<path fill-rule="evenodd" clip-rule="evenodd" d="M51.279 34.948C52.6201 33.8603 54.2896 33.2431 56.025 33.1933C57.6605 33.1369 58.8188 33.5269 59.5 34.3633C59.7711 34.6833 59.9529 35.0676 60.0272 35.4782C60.1016 35.8887 60.066 36.3113 59.924 36.7041C59.8148 37.0561 59.6294 37.3805 59.3806 37.6547C59.1317 37.929 58.8254 38.1465 58.4828 38.2923C58.0775 38.4506 57.6467 38.5357 57.211 38.5434H56.7878L57.0415 41.5528L57.7208 43.9775L55.3443 44.9803C55.1424 44.0998 55.0031 43.2065 54.9273 42.3068L54.7578 39.2952C52.2158 40.5774 50.8313 40.6611 50.6044 39.5463C50.1882 39.176 49.9169 38.6733 49.8378 38.126C49.5552 37.0096 50.0356 35.9508 51.279 34.9495V34.948Z" fill="#DED8A0"/>
<path fill-rule="evenodd" clip-rule="evenodd" d="M53.9903 38.4584C53.8768 38.4032 53.594 38.4864 53.1432 38.7095C52.7469 38.8199 52.5215 38.7375 52.4655 38.4584C52.4062 38.3113 52.3989 38.1487 52.445 37.997C52.491 37.8453 52.5877 37.7134 52.7193 37.6227C53.0866 37.4425 53.503 37.3839 53.9067 37.4555C54.5834 37.6239 54.8657 38.2376 54.7538 39.2964C54.7384 39.0928 54.6546 38.9002 54.5158 38.7488C54.377 38.5975 54.191 38.4961 53.9872 38.4607L53.9903 38.4584Z" fill="#968F48"/>
<path fill-rule="evenodd" clip-rule="evenodd" d="M56.7854 38.5437C56.689 38.2398 56.6776 37.9158 56.7525 37.606C56.8274 37.2962 56.9858 37.0121 57.2109 36.7838C57.4223 36.5214 57.7235 36.3439 58.058 36.2847C58.2834 36.2847 58.37 36.4533 58.3125 36.7861C58.2765 36.9048 58.2112 37.0129 58.1225 37.1007C58.0338 37.1884 57.9245 37.2531 57.8042 37.289C57.5685 37.3668 57.3618 37.5125 57.2109 37.7073L56.7854 38.5437Z" fill="#968F48"/>
<path fill-rule="evenodd" clip-rule="evenodd" d="M52.8044 51.6691C52.2384 50.4856 51.894 49.2109 51.7878 47.9065L51.8722 46.5686L52.8036 42.4717L56.7899 44.5621C58.5061 45.3614 60.0577 46.4668 61.3665 47.8225L59.8418 52.0873C58.6545 54.985 57.8072 56.7411 57.2997 57.3557L52.8044 51.6691Z" fill="#D66E40"/>
<path fill-rule="evenodd" clip-rule="evenodd" d="M52.8044 42.4727L52.9739 44.5631C53.254 46.5302 53.825 48.4461 54.6688 50.2497C55.9685 53.1474 57.2116 54.847 58.3983 55.3487L58.2289 55.9341C58.0075 56.4594 57.692 56.941 57.2975 57.3559C56.5902 58.0899 56.0674 58.9774 55.7712 59.947C54.6412 59.5573 53.455 58.3313 52.2126 56.2691C51.2274 54.3906 50.5955 52.3514 50.3475 50.2505L49.9243 46.4879L50.602 45.2332C51.0067 44.5872 51.46 43.9721 51.9581 43.3931L52.8052 42.4727H52.8044Z" fill="url(#paint3_linear_2454_870)"/>
<path fill-rule="evenodd" clip-rule="evenodd" d="M60.4314 47.7395C59.4398 48.2138 58.4219 48.6327 57.3826 48.9942C55.6879 49.5489 54.6712 48.7129 54.3323 46.4863C54.1626 45.5374 54.1907 44.9241 54.4166 44.6463C54.642 44.3105 55.1832 44.3687 56.0265 44.8149C57.592 45.6391 59.068 46.6191 60.4314 47.7395Z" fill="#AD5630"/>
<path fill-rule="evenodd" clip-rule="evenodd" d="M61.1934 48.0714L58.6514 54.9311C58.0964 54.4963 57.6353 53.9562 57.2952 53.3429C56.5041 51.9498 56.4193 50.8909 57.0407 50.1664C57.59 49.5348 58.2889 49.0469 59.0753 48.7461L60.6008 48.076C60.8834 47.9625 61.081 47.961 61.1934 48.0714Z" fill="#AD5630"/>
<path fill-rule="evenodd" clip-rule="evenodd" d="M56.2788 46.3179L56.8722 46.8193C55.9114 46.9877 55.4026 46.932 55.3459 46.6521C55.3273 46.6083 55.3194 46.5608 55.3228 46.5134C55.3263 46.4661 55.341 46.4201 55.3658 46.3794C55.3905 46.3387 55.4247 46.3043 55.4655 46.279C55.5062 46.2537 55.5525 46.2383 55.6004 46.2339C55.7081 46.176 55.8316 46.153 55.9533 46.1681C56.0751 46.1831 56.1889 46.2355 56.2788 46.3179Z" fill="#AB782A"/>
<path fill-rule="evenodd" clip-rule="evenodd" d="M58.8223 51.418C58.7089 52.5892 58.4533 52.9797 58.0557 52.5895C57.9998 52.4223 58.1117 52.1712 58.3961 51.8332L58.8223 51.418Z" fill="#AB782A"/>
<path fill-rule="evenodd" clip-rule="evenodd" d="M55.9406 46.3182C56.2794 46.4866 56.223 46.5703 55.7712 46.5693C55.6018 46.5693 55.5458 46.4861 55.6018 46.3182C55.6577 46.2071 55.7704 46.2071 55.9406 46.3182Z" fill="#E0BB82"/>
<path fill-rule="evenodd" clip-rule="evenodd" d="M52.8704 44.1362L53.1249 45.6413C52.6181 46.0297 52.1625 46.4791 51.7688 46.9792C51.5086 47.3843 51.2258 47.7749 50.9217 48.1492C50.6386 48.4835 50.4127 48.6229 50.2441 48.5674C50.0182 48.457 50.0744 48.0388 50.4127 47.3127C50.7043 46.6846 51.0744 46.0949 51.5143 45.5573C51.8618 44.9961 52.3236 44.5122 52.8704 44.1362V44.1362Z" fill="url(#paint4_linear_2454_870)"/>
<path fill-rule="evenodd" clip-rule="evenodd" d="M81.6187 39.3799L83.7376 41.7191C83.7376 42.3337 83.229 42.9748 82.212 43.6424C81.1218 44.4451 79.9576 45.1449 78.7347 45.7328L77.1248 46.4891L76.1919 46.7395L81.6164 39.3829L81.6187 39.3799Z" fill="#BD502F"/>
<path fill-rule="evenodd" clip-rule="evenodd" d="M76.2786 35.7842C77.2938 35.9853 78.2676 36.3529 79.1595 36.8717C79.7599 37.2366 80.2745 37.7236 80.6691 38.3001C81.0637 38.8767 81.3292 39.5296 81.4478 40.2154C81.4035 41.3789 81.204 42.5315 80.8545 43.6437L79.4984 44.8984C78.4591 45.6143 77.3527 46.2302 76.1943 46.7377C75.9897 45.4249 75.6485 44.1365 75.1763 42.8927C74.6887 41.6404 74.2924 40.3555 73.9903 39.0476L73.397 36.6229L74.4143 35.7025C75.0343 35.5948 75.6707 35.6226 76.2786 35.7842Z" fill="#EB7855"/>
<path fill-rule="evenodd" clip-rule="evenodd" d="M76.1959 32.9399L77.6356 33.3582C78.9592 34.0191 80.1395 34.9283 81.1106 36.0347C82.0141 36.9816 82.8898 38.8764 83.7377 41.7191C83.7939 42.0544 83.4551 42.4726 82.7212 42.9738C82.3291 43.283 81.8614 43.4849 81.3651 43.5592L80.8553 43.6424L79.9223 41.2177C79.3602 39.88 78.061 38.5691 76.0249 37.2849C75.4058 36.8998 74.7139 36.6425 73.9911 36.5286L73.3978 36.6118C73.3405 36.5009 73.5105 36.0549 73.9076 35.2739C74.5842 33.9418 75.347 33.1638 76.1959 32.9399Z" fill="url(#paint5_linear_2454_870)"/>
<path fill-rule="evenodd" clip-rule="evenodd" d="M74.7277 35.6506C74.3888 35.2609 74.5301 34.7869 75.1516 34.2288C75.4542 33.9822 75.8108 33.8084 76.1932 33.7213C76.5756 33.6341 76.9733 33.6359 77.3548 33.7266C78.1195 33.8526 78.8281 34.2025 79.3886 34.7309C79.6127 34.899 79.797 35.1132 79.9287 35.3586C80.0604 35.604 80.1364 35.8747 80.1514 36.152C80.1514 36.7067 79.4451 36.9852 78.0325 36.9877C77.4132 37.0436 76.7894 36.9513 76.2141 36.7185C75.6387 36.4857 75.1288 36.1194 74.7277 35.6506Z" fill="url(#paint6_linear_2454_870)"/>
<path fill-rule="evenodd" clip-rule="evenodd" d="M74.0752 37.9569C74.0752 37.5107 74.4141 37.483 75.0917 37.8737C75.3705 38.0065 75.6192 38.1935 75.823 38.4234C76.0268 38.6533 76.1814 38.9214 76.2777 39.2116C76.7274 40.845 76.8431 42.5503 76.618 44.2282C76.5695 44.9753 76.3973 45.7096 76.1083 46.4018C76.1246 45.369 75.9227 44.3442 75.5157 43.3925C74.8236 41.9975 74.3654 40.501 74.1588 38.9613L74.0745 37.9569H74.0752Z" fill="#AD5630"/>
<path fill-rule="evenodd" clip-rule="evenodd" d="M76.7892 45.7335C76.6195 45.9548 77.128 44.4498 78.3147 41.2183C78.5416 40.883 78.8528 40.9667 79.2484 41.4694C79.5915 41.9882 79.741 42.6085 79.6716 43.224C79.5975 43.5571 79.4432 43.8676 79.2216 44.1293C79.0001 44.391 78.718 44.5962 78.399 44.7276L76.7892 45.7335Z" fill="#AD5630"/>
<path fill-rule="evenodd" clip-rule="evenodd" d="M75.3495 41.0519C75.2312 40.812 75.1457 40.5577 75.095 40.2956C74.9815 39.7942 75.0107 39.4599 75.1793 39.2913C75.5192 38.958 75.6891 39.1813 75.6891 39.9613C75.6443 40.3423 75.5292 40.7119 75.3495 41.0519Z" fill="#C48A30"/>
<path fill-rule="evenodd" clip-rule="evenodd" d="M77.8892 43.8932C77.9418 43.579 78.027 43.2711 78.1437 42.9742C78.3131 42.4176 78.5109 42.249 78.7363 42.4728C79.0777 42.8071 78.7953 43.2805 77.8892 43.8932Z" fill="#C48A30"/>
<path fill-rule="evenodd" clip-rule="evenodd" d="M75.1777 39.2943C75.4031 38.9048 75.5181 39.0167 75.5181 39.6301C75.5101 39.8752 75.4201 40.1108 75.2621 40.3002L75.1777 39.2951V39.2943Z" fill="#E0BB82"/>
<path fill-rule="evenodd" clip-rule="evenodd" d="M78.3997 42.639C78.6803 42.8659 78.5683 43.1427 78.0593 43.4747C78.0602 43.3042 78.0886 43.1349 78.1437 42.9733C78.2004 42.639 78.2839 42.5286 78.3997 42.639Z" fill="#E0BB82"/>
<path fill-rule="evenodd" clip-rule="evenodd" d="M73.7366 58.4407L74.2464 46.4858L74.7546 47.6551L75.4323 50.163C75.9516 51.9753 76.3483 53.8197 76.6198 55.684C76.9014 57.3559 76.873 58.442 76.5347 58.9421L73.7366 58.4407Z" fill="#BD502F"/>
<path fill-rule="evenodd" clip-rule="evenodd" d="M74.2463 46.4858L75.4322 51.6688L75.6867 54.1774C74.9518 56.1282 74.4152 57.2427 74.0768 57.5211C73.0598 58.4679 71.9012 58.5237 70.6011 57.6882C69.6208 57.0615 68.7601 56.2694 68.0583 55.3482C67.5101 54.7643 67.0786 54.0835 66.7865 53.3417L66.5327 51.5024C67.0949 51.1126 67.7163 50.6949 68.3971 50.2492C69.3328 49.5565 70.3248 48.941 71.3631 48.4091C72.4262 47.9317 73.4006 47.2816 74.2455 46.4858H74.2463Z" fill="#EB7855"/>
<path fill-rule="evenodd" clip-rule="evenodd" d="M66.3641 57.6063C65.8965 56.1438 65.838 54.5838 66.1947 53.0912L66.5335 51.5029L66.8739 52.2532C67.404 52.8787 68.0337 53.4151 68.7382 53.8414C69.5571 54.3668 70.4398 54.7884 71.3654 55.0961C71.7328 55.235 72.1249 55.2993 72.5182 55.285C72.9114 55.2707 73.2976 55.1782 73.6537 55.0129C74.2964 54.6586 74.9783 54.3784 75.686 54.178L76.0248 54.7626C76.2733 55.4094 76.4439 56.0829 76.533 56.7691C76.7037 57.9948 76.7037 58.7193 76.533 58.9427C74.3298 60.2823 72.6349 60.8397 71.4482 60.6149C70.0069 60.4057 68.6554 59.7972 67.5508 58.8602L66.3641 57.6063Z" fill="url(#paint7_linear_2454_870)"/>
<path fill-rule="evenodd" clip-rule="evenodd" d="M67.0557 53.7056C67.9592 53.7616 68.9198 54.626 69.9373 56.299C70.8981 57.862 71.2372 58.8654 70.9546 59.3091C70.7979 59.505 70.5798 59.6441 70.3344 59.7045C70.089 59.765 69.8302 59.7435 69.5985 59.6433C68.791 59.3806 68.1017 58.8484 67.649 58.1383C66.9606 57.3363 66.5445 56.3414 66.4592 55.2938C66.4056 54.1796 66.6044 53.6501 67.0557 53.7056Z" fill="url(#paint8_linear_2454_870)"/>
<path fill-rule="evenodd" clip-rule="evenodd" d="M71.873 48.3255C72.7567 48.0314 73.5069 47.4393 73.9919 46.6533L73.1432 48.9979C72.7449 49.7197 72.2617 50.3927 71.7036 51.0028C71.2171 51.6082 70.6465 52.1429 70.0086 52.591C69.7481 52.7234 69.4516 52.7704 69.1622 52.7254C68.8728 52.6804 68.6054 52.5457 68.3987 52.3407C67.7211 51.8945 67.5235 51.5045 67.8062 51.1707C68.0194 50.9614 68.2174 50.7374 68.3987 50.5006C68.8291 50.1122 69.2825 49.7493 69.7564 49.4138C70.4067 48.9535 71.1201 48.5871 71.8753 48.3255H71.873Z" fill="#AD5630"/>
<path fill-rule="evenodd" clip-rule="evenodd" d="M74.0761 47.9065C74.0761 47.9619 74.2455 48.7979 74.5843 50.4144C74.8782 51.3117 74.8782 52.2776 74.5843 53.1749C74.4956 53.4394 74.3256 53.6701 74.098 53.835C73.8704 53.9999 73.5964 54.0909 73.3141 54.0953C72.7519 54.0388 72.4979 53.7598 72.5521 53.2581C73.5676 49.3551 74.0756 47.5712 74.0761 47.9065Z" fill="#AD5630"/>
<path fill-rule="evenodd" clip-rule="evenodd" d="M70.4326 50.0801L70.0938 51.418C69.6425 51.8642 69.3869 51.8365 69.3271 51.3348C69.3419 51.1453 69.4038 50.9623 69.5073 50.8021C69.6107 50.6418 69.7527 50.5092 69.9205 50.4159L70.4303 50.0801H70.4326Z" fill="#C48A30"/>
<path fill-rule="evenodd" clip-rule="evenodd" d="M73.7365 50.667C74.0191 52.1151 73.9343 52.8119 73.482 52.7574C73.2006 52.6999 73.1708 52.3392 73.3977 51.6699L73.7365 50.667Z" fill="#C48A30"/>
<path fill-rule="evenodd" clip-rule="evenodd" d="M69.3292 51.3372L70.0084 50.6694L69.7539 51.3372C69.4161 51.8954 69.2748 51.8954 69.33 51.3372H69.3292Z" fill="#E0BB82"/>
<path fill-rule="evenodd" clip-rule="evenodd" d="M73.4865 52.254C73.373 52.1988 73.373 52.0052 73.4865 51.6694L73.6574 51.168C73.823 51.9485 73.7655 52.3115 73.4865 52.254Z" fill="#E0BB82"/>
<path fill-rule="evenodd" clip-rule="evenodd" d="M95.5171 45.5652L96.0253 46.7368C96.3841 48.2145 96.4704 49.744 96.2798 51.2519L93.908 60.1142C93.2313 59.8929 91.877 58.7784 89.845 56.7706L87.0469 53.7613C87.7797 51.428 88.8345 49.2054 90.1815 47.1558L93.3192 42.2231L95.5201 45.566L95.5171 45.5652Z" fill="#D66E40"/>
<path fill-rule="evenodd" clip-rule="evenodd" d="M96.1962 61.5356C95.6488 60.7866 94.8277 60.2767 93.9064 60.1138C93.3888 60.0553 92.9087 59.8189 92.5503 59.446L92.2114 58.9423C93.2295 57.5492 93.8512 54.9856 94.0766 51.2514C94.2596 48.9641 94.1742 46.6636 93.8221 44.3956L93.2295 42.2212L94.3295 42.4723C94.9973 42.6388 95.6295 42.9218 96.1962 43.308L97.3814 44.0643L98.1434 48.0727C98.637 50.4388 98.7236 52.87 98.3994 55.2644C97.8909 58.2195 97.1565 60.3099 96.1962 61.5356Z" fill="url(#paint9_linear_2454_870)"/>
<path fill-rule="evenodd" clip-rule="evenodd" d="M87.8059 53.0067C88.6981 50.8992 89.7461 48.8593 90.9413 46.9033C91.6763 45.8445 92.2129 45.3983 92.5512 45.5647C92.8338 45.6776 93.0314 46.2632 93.1438 47.3215C93.5961 49.7175 92.9187 51.2503 91.1115 51.9199L87.8052 53.0059L87.8059 53.0067Z" fill="#AD5630"/>
<path fill-rule="evenodd" clip-rule="evenodd" d="M87.2087 53.8427L87.8021 53.4252L89.497 53.0077C90.2583 52.7451 91.0768 52.6874 91.8681 52.8406C92.6603 53.1174 92.9158 54.2319 92.6347 56.1842C92.5104 57.0541 92.2518 57.9001 91.8681 58.6929L87.2087 53.8427Z" fill="#AD5630"/>
<path fill-rule="evenodd" clip-rule="evenodd" d="M91.2794 48.5766C91.3308 48.4431 91.4101 48.3219 91.5122 48.2208C91.6143 48.1196 91.7369 48.0409 91.8719 47.9897C92.1548 47.8792 92.2959 47.9345 92.2959 48.1583C92.2959 48.4916 91.816 48.9376 90.8562 49.4962L91.2794 48.5773V48.5766Z" fill="#AB782A"/>
<path fill-rule="evenodd" clip-rule="evenodd" d="M90.5174 55.4316L91.1107 55.5148C91.4488 55.6268 91.6473 55.7674 91.7041 55.9331C91.76 56.2674 91.6757 56.4345 91.448 56.4345C91.1664 56.492 90.8559 56.1577 90.5166 55.4316H90.5174Z" fill="#AB782A"/>
<path fill-rule="evenodd" clip-rule="evenodd" d="M91.6198 48.2425C91.7317 48.0156 91.8444 47.9634 91.9586 48.0738C91.9856 48.1311 91.9918 48.1958 91.976 48.257C91.9602 48.3182 91.9235 48.3721 91.872 48.4096C91.7033 48.5783 91.5914 48.6607 91.5354 48.6607C91.4212 48.7152 91.4488 48.5768 91.6198 48.2425Z" fill="#E0BB82"/>
<path fill-rule="evenodd" clip-rule="evenodd" d="M93.7524 43.8475C94.3749 43.8051 94.9956 43.951 95.5317 44.2658C96.1303 44.4519 96.68 44.7659 97.1416 45.1854C97.6506 45.6321 97.8497 45.9664 97.7388 46.1883C97.6253 46.4106 97.344 46.4674 96.8917 46.3554C96.4394 46.1331 96.073 45.9659 95.7901 45.854C95.2389 45.6779 94.6688 45.5657 94.0913 45.5197C93.9523 45.2012 93.8666 44.8625 93.8375 44.5169L93.7524 43.8475Z" fill="url(#paint10_linear_2454_870)"/>
<path fill-rule="evenodd" clip-rule="evenodd" d="M54.5844 58.697C54.6318 57.9131 54.8333 57.1459 55.1778 56.4379C55.4032 55.9867 55.7562 55.6094 56.1943 55.3519C56.5435 55.1514 56.8584 54.8977 57.1273 54.6001C57.3774 54.0622 57.5758 53.5024 57.7198 52.9279C57.872 52.2784 58.1293 51.6573 58.4819 51.0886C58.5963 50.9599 58.7418 50.8617 58.9048 50.803C59.0678 50.7443 59.2432 50.7271 59.4148 50.7528C59.5842 50.808 59.8671 50.892 60.2619 51.0032C60.4266 51.0023 60.5892 51.0396 60.7366 51.1121C60.8841 51.1846 61.0121 51.2903 61.1105 51.4206C61.5718 52.0656 61.9959 52.7358 62.3808 53.4279C62.8331 54.3193 63.1719 54.7098 63.3973 54.5994C63.7818 54.4073 64.1784 54.2398 64.5848 54.0979C65.0205 54.118 65.4477 54.2244 65.8409 54.4109C66.234 54.5973 66.5851 54.86 66.8731 55.1832C67.5507 55.9637 67.5224 56.5211 66.788 56.8554C64.6982 57.9143 63.4269 58.5281 62.9741 58.697C60.9749 59.6016 58.8159 60.1123 56.6182 60.2006C54.8663 60.2006 54.0187 60.0334 54.0754 59.6991C54.4705 59.3084 54.6399 58.9743 54.5837 58.697H54.5844Z" fill="#7BB342"/>
<path fill-rule="evenodd" clip-rule="evenodd" d="M79.3311 51.5035C79.8505 51.3073 80.2951 50.9562 80.6029 50.4991C80.8185 50.0649 81.1047 49.6685 81.45 49.3253C81.5883 49.2057 81.7495 49.1146 81.9241 49.0573C82.0987 49 82.2831 48.9778 82.4665 48.9918C83.3825 48.9098 84.3014 49.1143 85.0929 49.5764C85.3644 49.895 85.5669 50.2652 85.6878 50.664C85.9124 51.1654 86.1684 51.4143 86.4544 51.4143C86.846 51.3274 87.2007 51.1232 87.4701 50.8296C87.7441 50.4829 88.1354 50.245 88.5725 50.1595C89.2501 50.21 89.8842 50.508 90.351 50.9953C90.0311 51.4467 89.7473 51.9221 89.5024 52.4171C88.9988 53.3097 88.6259 54.2681 88.3946 55.2638C88.4005 56.0351 88.544 56.7993 88.8186 57.5214C89.0439 58.19 88.7611 58.7474 87.9699 59.1936C86.841 59.9186 84.1011 60.0858 79.7504 59.695C75.2883 59.2488 73.0565 58.4126 73.0549 57.1864C73.0549 56.0723 73.3662 55.5981 73.9879 55.7668C74.779 56.0436 75.344 55.9042 75.6828 55.3485C75.7963 55.1262 76.0787 54.5413 76.5299 53.5939C76.7661 53.1271 77.1165 52.7258 77.5495 52.4262C77.8321 52.2578 78.4257 51.9515 79.3303 51.5073L79.3311 51.5035Z" fill="#7BB342"/>
<path fill-rule="evenodd" clip-rule="evenodd" d="M45.8553 51.8365C45.6299 51.8365 45.5149 51.5862 45.5149 51.0862L45.6 49.8308L46.7875 49.4965C47.6457 49.2741 48.5437 49.2457 49.4146 49.4133C50.6944 49.7088 51.9033 50.2483 52.9732 51.0015C54.2395 51.8143 55.1954 53.02 55.69 54.4283C56.049 55.3309 56.1657 56.3096 56.0288 57.2698C55.8243 57.7786 55.4703 58.2155 55.0123 58.5245C54.3904 58.9707 53.0907 58.943 51.1134 58.4413L50.3514 60.5317C49.8041 60.6192 49.2434 60.5059 48.775 60.2133C48.3067 59.9206 47.9631 59.4689 47.8093 58.9435C47.2811 57.5544 46.8548 56.1296 46.5337 54.6802L45.8545 51.8365H45.8553Z" fill="#7A6227"/>
<path fill-rule="evenodd" clip-rule="evenodd" d="M45.0894 54.9293C43.846 53.0325 43.789 51.5274 44.9185 50.4142C46.1057 49.133 48.3092 49.5235 51.5289 51.5857C52.9461 52.5195 53.9936 53.9069 54.4949 55.5139C54.9472 57.1304 54.5518 57.9119 53.3089 57.8584C52.3139 57.8113 51.3231 57.6996 50.3429 57.5242L49.3264 57.2715L48.9861 57.6898C48.7794 58.0166 48.6626 58.3909 48.6472 58.7758C48.694 59.3121 48.5438 59.8471 48.2241 60.2831C47.393 60.1545 46.6229 59.7745 46.0201 59.1956L45.3424 58.5255L45.7656 55.9344L45.0894 54.9293Z" fill="#DED8A0"/>
<path fill-rule="evenodd" clip-rule="evenodd" d="M48.1428 56.9382C48.1428 56.7698 47.804 56.5177 47.1263 56.1819C46.3347 55.8496 45.8824 55.5148 45.7694 55.1775C45.7012 54.9647 45.6889 54.7382 45.7337 54.5194C45.7785 54.3006 45.8789 54.0966 46.0255 53.9266C46.3643 53.5933 46.7596 53.6218 47.2114 54.012C47.5776 54.4007 47.8513 54.865 48.0127 55.3712C48.1741 55.8774 48.2191 56.4127 48.1444 56.9382H48.1428Z" fill="#968F48"/>
<path fill-rule="evenodd" clip-rule="evenodd" d="M49.3293 57.2735C49.7322 56.8791 50.1886 56.5418 50.6855 56.2714C51.6463 55.7167 52.3245 55.689 52.72 56.1882C53.0599 56.5789 52.721 56.8015 51.7035 56.856C50.4164 56.8522 49.626 56.9929 49.3293 57.2735Z" fill="#968F48"/>
<path fill-rule="evenodd" clip-rule="evenodd" d="M88.9919 53.3406C85.0357 57.1307 82.9733 59.0263 82.8046 59.0273C79.6984 59.0273 77.8902 58.5533 77.3802 57.6054C77.18 57.2042 77.0689 56.7654 77.0544 56.3185C77.0398 55.8715 77.1222 55.4266 77.2958 55.0136C77.4908 54.1408 78.0019 53.3682 78.7332 52.8407C80.3297 51.8595 82.1958 51.392 84.0734 51.5028C86.3323 51.6137 87.8297 51.9757 88.5656 52.5889C88.8462 52.8112 88.9888 52.9783 88.9888 53.0903C88.9888 53.1455 88.9888 53.2294 88.9888 53.3406H88.9919Z" fill="#7A6227"/>
<path fill-rule="evenodd" clip-rule="evenodd" d="M78.7363 57.4392C78.5608 56.8715 78.5032 56.2747 78.5669 55.6846C78.5984 55.0911 78.7871 54.5162 79.1143 54.0172C79.4414 53.5182 79.8955 53.1126 80.4312 52.8409C82.0034 52.0584 83.7613 51.7113 85.5176 51.8365C87.5512 51.9494 88.8225 52.3677 89.3315 53.0912C89.5956 53.4161 89.7855 53.7935 89.8881 54.1975C89.9908 54.6014 90.0039 55.0225 89.9264 55.432C89.8912 55.843 89.7363 56.2353 89.4805 56.5616C89.2247 56.8879 88.8788 57.1343 88.4844 57.2713L85.6886 57.8582L85.5176 59.6975L82.6367 59.9486L82.5517 58.3604C80.235 58.4148 78.9632 58.1078 78.7363 57.4392Z" fill="#DED8A0"/>
<path fill-rule="evenodd" clip-rule="evenodd" d="M84.4153 58.5248C83.6297 58.6918 82.8143 58.6632 82.0427 58.4416C81.1391 58.3307 80.8562 57.9125 81.194 57.1869C81.2648 56.8782 81.4553 56.6092 81.7247 56.4374C81.9941 56.2657 82.3209 56.2048 82.6353 56.268C83.4254 56.3779 84.0187 57.1302 84.4153 58.5248Z" fill="#968F48"/>
<path fill-rule="evenodd" clip-rule="evenodd" d="M85.687 58.3585C85.4601 58.5824 85.6011 58.1642 86.1101 57.1038C86.5062 56.1569 86.9583 55.655 87.4663 55.598C88.0297 55.5428 88.2329 55.7667 88.0588 56.2681C87.973 56.6759 87.7304 57.0351 87.3819 57.2702C86.7693 57.555 86.199 57.9211 85.687 58.3585Z" fill="#968F48"/>
<path fill-rule="evenodd" clip-rule="evenodd" d="M101.621 53.1748H102.554C101.421 59.92 97.9174 65.5494 92.0437 70.063C86.0388 74.5832 78.6621 76.9695 71.1101 76.835C63.5818 76.9789 56.2281 74.5906 50.2585 70.063C44.3302 65.5479 40.8293 59.9185 39.7561 53.1748H40.686C43.1718 55.5708 47.1267 57.4933 52.5507 58.9424C58.6361 60.5094 64.9063 61.2686 71.1952 61.1999C77.456 61.265 83.6976 60.5053 89.7546 58.9409C95.2348 57.4938 99.1902 55.5718 101.621 53.1748Z" fill="url(#paint11_linear_2454_870)"/>
<path fill-rule="evenodd" clip-rule="evenodd" d="M101.026 52.0049H102.382L102.466 52.8406C102.466 55.3485 99.4161 57.4944 93.3155 59.2782C87.1541 61.0606 79.752 61.9528 71.1094 61.9548C62.4095 61.9548 55.0082 61.0626 48.9055 59.2782C42.7477 57.4944 39.6685 55.3485 39.668 52.8406L39.8374 52.0049H41.5323L41.448 52.2537C41.448 54.2609 44.3578 55.9893 50.1773 57.4389C56.0546 58.887 63.0889 59.6115 71.2803 59.6125C79.4717 59.6135 86.4772 58.889 92.2967 57.4389C98.1157 55.9883 101.025 54.2592 101.026 52.2514V52.0049Z" fill="white"/>
<path fill-rule="evenodd" clip-rule="evenodd" d="M40.8554 54.4296C41.4954 54.2435 42.1693 54.1994 42.8287 54.3005C43.4881 54.4015 44.1166 54.6453 44.6692 55.0143C45.286 55.36 45.8553 55.7822 46.3634 56.2705C46.1354 56.2774 45.9085 56.3052 45.6857 56.3537C44.8769 56.5898 44.1265 56.9887 43.4818 57.5252C42.1831 58.4721 41.7597 59.6149 42.2115 60.9535L41.1935 58.6944C40.8631 57.2978 40.7492 55.8599 40.8554 54.4296Z" fill="#7C9FA3"/>
<path fill-rule="evenodd" clip-rule="evenodd" d="M53.4822 64.0447C53.603 63.0201 53.919 62.0273 54.4136 61.1186C55.261 60.1142 58.0859 59.3327 62.8884 58.774C65.7805 58.3654 68.6964 58.1421 71.6177 58.1055C74.715 58.2476 77.8001 58.5831 80.8545 59.1098C80.2341 59.1098 79.4163 59.6947 78.4014 60.8645C77.6682 61.6547 76.8427 62.3564 75.9421 62.9549C75.7191 63.1613 75.4463 63.308 75.1497 63.381C74.853 63.4541 74.5423 63.4511 74.2472 63.3724C73.2863 63.0935 72.7776 62.9544 72.7208 62.9549C72.0989 62.9549 71.7036 63.094 71.5349 63.3724C71.1555 64.2109 70.8433 65.0775 70.6012 65.9642C70.2634 67.079 69.8113 67.6084 69.2451 67.5524L68.0591 67.3853C67.9472 67.5524 67.6068 67.4405 67.0426 67.051C66.5457 66.6313 65.9166 66.3944 65.2626 66.3809C64.2346 66.5576 63.1768 66.3491 62.2966 65.7963C61.4686 65.4455 60.5504 65.3577 59.6695 65.5452C58.5533 65.7632 57.4893 66.1885 56.5341 66.7984C55.9639 67.3332 55.2603 67.7095 54.4949 67.889C54.0998 67.889 53.7329 67.4985 53.3941 66.7175C53.2303 65.8305 53.2606 64.9192 53.483 64.0447H53.4822Z" fill="#7C9FA3"/>
<path fill-rule="evenodd" clip-rule="evenodd" d="M96.1097 58.6928C97.7078 58.4122 99.3199 58.2163 100.939 58.1059L99.1607 61.1167C98.069 62.9876 96.7606 64.7269 95.2618 66.2997C95.6667 65.8258 96.0347 65.3225 96.3626 64.7939C96.7342 64.188 96.9388 63.4968 96.956 62.7889C97.0135 62.0084 96.8985 61.5342 96.6179 61.3671C95.8224 61.4116 95.0298 61.238 94.3281 60.8656C93.5369 60.0851 92.8307 59.4435 92.2092 58.9408C91.4171 58.5482 90.5515 58.3208 89.6664 58.273L87.802 58.0219L90.9374 57.5205C91.8789 57.5558 92.8027 57.7834 93.6504 58.1891C94.3969 58.6058 95.2567 58.7819 96.1097 58.6928Z" fill="#7C9FA3"/>
<path fill-rule="evenodd" clip-rule="evenodd" d="M60.2619 63.9589C58.3525 64.1716 56.5223 64.831 54.9233 65.8821C54.3333 66.3194 53.6007 66.527 52.8654 66.4653C52.1302 66.4037 51.4437 66.0771 50.9369 65.5479C50.0293 64.6916 49.2579 63.7051 48.6486 62.6217C48.3088 62.12 48.4782 61.7857 49.1569 61.6189C49.9009 61.4872 50.6171 61.233 51.2758 60.8671C52.1715 60.077 52.994 59.2096 53.7335 58.2752C54.2932 57.7442 55.0038 57.3944 55.7703 57.2724L57.4653 56.8549C58.8517 56.7647 60.2438 56.8212 61.618 57.0236C62.2281 57.0371 62.8342 56.9232 63.3965 56.6893C63.7364 56.5219 64.273 56.2156 65.0064 55.7704C65.684 55.4351 68.6227 55.6299 73.8223 56.355C77.3236 56.8567 79.9502 57.8046 81.7022 59.1987C80.8712 59.172 80.0416 59.2851 79.2491 59.533C78.7157 59.9229 78.2039 60.3407 77.7159 60.7847C77.041 61.4021 76.1789 61.7832 75.2627 61.8692C74.8979 61.8736 74.5376 61.9499 74.203 62.0937C73.8685 62.2375 73.5665 62.4458 73.3148 62.7064C72.87 63.1981 72.473 63.7298 72.1289 64.2947C71.8212 64.7344 71.3715 65.0583 70.8532 65.2136C70.2868 65.2104 69.7207 65.2389 69.1575 65.299C68.5145 65.3985 67.8564 65.2804 67.2901 64.964C66.8594 64.6929 66.3596 64.5482 65.8489 64.5465C65.5304 64.6881 65.1801 64.7456 64.8323 64.7136C64.7204 64.6584 64.38 64.4633 63.8158 64.129C63.2516 63.7947 62.0703 63.7365 60.2619 63.9589Z" fill="#8ABD4D"/>
<path fill-rule="evenodd" clip-rule="evenodd" d="M97.0436 55.348C97.2531 55.0681 97.5195 54.8343 97.8257 54.6616C98.1319 54.489 98.4713 54.3812 98.8221 54.3451C99.1609 54.3451 99.6416 54.3716 100.262 54.4291C100.889 54.3776 101.52 54.4342 102.127 54.5962C102.579 54.5962 103.652 54.0114 105.347 52.8416C105.912 52.4509 106.336 52.3394 106.618 52.5073C106.957 52.6183 107.07 52.9246 106.957 53.4262C106.957 53.7605 106.674 54.0131 106.109 54.1825C105.784 54.2568 105.48 54.3994 105.217 54.6006C104.953 54.8018 104.737 55.0567 104.583 55.348C104.064 56.4255 103.639 57.5446 103.313 58.6931C103.159 59.4996 102.841 60.2672 102.38 60.9499C102.156 61.1723 101.76 61.0889 101.192 60.6996C100.46 60.1415 99.8647 59.6952 99.4139 59.3609C99.1102 59.1381 98.7453 59.0112 98.3671 58.9968C97.9888 58.9825 97.6151 59.0815 97.295 59.2808C96.6988 59.6346 96.0754 59.9418 95.4306 60.1997C95.2218 60.2813 94.9953 60.3087 94.7727 60.2795C94.5501 60.2502 94.3387 60.1652 94.1588 60.0325C93.5637 59.6555 92.9972 59.2361 92.4639 58.7778C91.9554 58.3881 90.9667 58.1932 89.4979 58.1932L87.4641 58.3604C87.8029 58.2494 88.6227 57.9988 89.9234 57.6086C90.6043 57.3333 91.3154 57.1369 92.0423 57.0232C93.6807 56.8009 94.5281 56.6894 94.5843 56.6889C95.5178 56.4863 96.372 56.0213 97.0436 55.3503V55.348Z" fill="#8ABD4D"/>
<path fill-rule="evenodd" clip-rule="evenodd" d="M46.9576 56.3526C46.5653 56.4738 46.1411 56.4441 45.7701 56.2694C45.5447 56.0455 44.9797 56.0732 44.0751 56.3526C43.696 56.4001 43.3321 56.5299 43.0098 56.7325C42.6874 56.9352 42.4146 57.2058 42.2108 57.5248C41.8719 58.1369 41.7025 59.4464 41.7025 61.4531C41.7025 61.7874 41.505 61.8153 41.1099 61.537C40.6792 61.2006 40.2261 60.8928 39.7538 60.6158C38.6238 60.0612 37.8611 58.891 37.4655 57.1051C37.2159 56.01 36.587 55.0351 35.687 54.3484C35.3482 54.0151 35.3482 53.1234 35.687 51.6733C35.8307 51.1777 36.1266 50.7383 36.5341 50.4156C37.0474 49.9679 37.7135 49.7285 38.3985 49.7455H41.0287C41.495 49.7142 41.9617 49.8007 42.3848 49.9966C42.9792 50.405 43.5455 50.8519 44.0797 51.3345C45.2061 52.3399 46.1654 54.0126 46.9576 56.3526Z" fill="#8ABD4D"/>
<path fill-rule="evenodd" clip-rule="evenodd" d="M43.6489 53.3396C43.8866 53.2887 44.1326 53.2887 44.3703 53.3396L43.7348 53.1724C42.9821 53.0223 42.2134 52.9657 41.4465 53.0038C40.8843 53.0038 40.5455 54.0354 40.43 56.0986C40.3162 57.3503 40.3162 58.6095 40.43 59.8612C40.0428 58.8454 39.8419 57.7699 39.8366 56.6847L40.3464 53.1739C40.1666 53.1941 39.9929 53.2511 39.8366 53.3411C39.4253 53.5212 39.073 53.8109 38.8193 54.1776L37.5498 56.0169C37.7189 55.1743 38.0039 54.3585 38.3969 53.5922C38.6296 53.1944 38.9481 52.8521 39.3299 52.5893L39.8382 52.2535C39.3029 51.8554 38.6461 51.6492 37.9761 51.6689L36.3662 51.836L37.2095 51.4178C37.7762 51.205 38.3908 51.1475 38.988 51.2514C39.8351 51.4178 40.2912 51.5585 40.3449 51.6689L41.0225 51.2514H40.7696L39.5859 50.3325L40.0942 50.5813C40.4219 50.6921 40.7658 50.749 41.1122 50.75C41.6208 50.75 42.0442 51.0843 42.3825 51.7529H43.0602C43.8513 51.7529 44.6987 52.2548 45.6022 53.2587C45.8748 53.4825 46.0925 53.7642 46.2392 54.0827C46.3859 54.4012 46.4577 54.7482 46.4493 55.098L46.1105 54.5966L45.4328 54.1791H44.5895C43.8292 54.2447 43.0992 54.5037 42.4707 54.9308C41.9324 55.3065 41.5654 55.8759 41.4488 56.516C41.3462 56.8412 41.2892 57.1786 41.2794 57.5189C41.2021 56.4233 41.5005 55.3338 42.1265 54.4256C42.4749 53.8852 43.0195 53.4966 43.6489 53.3396Z" fill="#719B3F"/>
<path fill-rule="evenodd" clip-rule="evenodd" d="M55.7705 59.9455C54.3584 61.5619 53.2568 62.3707 52.4657 62.3717H51.4453C52.0354 62.2396 52.5901 61.9848 53.0724 61.6243C53.5546 61.2638 53.9534 60.8059 54.2419 60.2813C54.8638 59.0545 56.3894 58.4407 58.8185 58.4397C59.9004 58.503 60.9764 58.6425 62.0382 58.8571C63.2816 59.081 64.016 59.1087 64.2414 58.9403C65.5983 58.0504 66.3046 57.605 66.3603 57.6039C66.7522 57.5169 67.1073 57.3124 67.3768 57.0186L63.3905 57.4368C63.5947 57.2423 63.8229 57.0738 64.0697 56.9354C64.57 56.602 65.161 56.4264 65.7647 56.4317C66.7448 56.5169 67.7316 56.3739 68.6456 56.0142C69.0341 55.8 69.4708 55.6853 69.9158 55.6807H70.7629L73.2222 56.2653C72.9393 56.3205 72.6288 56.3772 72.2884 56.4324C71.7848 56.4724 71.2949 56.6145 70.8495 56.8499C70.6786 56.9626 71.0473 57.1842 71.9504 57.52C72.6181 57.6577 73.2338 57.9759 73.7289 58.4389C74.1528 59.2403 74.3846 60.127 74.4066 61.0307C74.1294 60.4247 73.7252 59.8834 73.2206 59.4425C72.6292 58.9444 71.938 58.5746 71.1922 58.3572C70.6421 58.1989 70.1254 57.9442 69.6667 57.6055L68.9001 57.0201L66.2729 59.1944L68.3918 60.282C68.9958 60.7904 69.4865 61.4166 69.833 62.1213C70.0782 62.5471 70.469 62.8728 70.9354 63.0402C70.5646 63.0241 70.2008 62.9343 69.8659 62.7765C69.531 62.6186 69.2317 62.3958 68.9859 62.1213C67.856 60.8946 66.8951 60.2815 66.1035 60.282H65.0065L64.4131 60.5308C63.9841 60.7927 63.5862 61.1015 63.2272 61.4513C62.7694 62.0354 62.1023 62.4245 61.3628 62.5388C61.7728 61.9259 62.2567 61.3644 62.804 60.8666L63.8206 60.1103C62.6344 59.9994 61.5611 59.9437 60.6008 59.9432C59.5828 59.7208 58.7635 59.5537 58.1431 59.4418C57.736 59.3313 57.3079 59.3193 56.8952 59.4069C56.4824 59.4944 56.0971 59.6789 55.772 59.9447L55.7705 59.9455Z" fill="#719B3F"/>
<path fill-rule="evenodd" clip-rule="evenodd" d="M95.7717 57.5223C95.7134 57.4103 95.4045 57.2697 94.838 57.104L93.9878 56.8522L95.3447 56.4347H96.3643C97.3477 56.321 98.3147 56.0969 99.2467 55.7669L102.636 55.6837C103.167 55.6191 103.675 55.4326 104.12 55.1392C103.489 55.7699 103.079 56.2015 102.89 56.4339C102.793 56.5911 102.656 56.7204 102.492 56.8088C102.329 56.8972 102.145 56.9416 101.958 56.9376L101.45 56.769L101.619 57.4391L102.213 59.0273C101.734 58.7187 101.352 58.2841 101.11 57.7726C100.912 57.3994 100.603 57.095 100.224 56.9006C99.8451 56.7061 99.4149 56.6309 98.9914 56.685C98.5233 56.7119 98.0766 56.8882 97.7188 57.1872L97.2106 57.6055L98.0577 57.7741C98.3172 57.7915 98.5707 57.8595 98.8035 57.9742C99.0362 58.0888 99.2437 58.2478 99.4138 58.4419L98.9906 58.2748C98.697 58.1479 98.3696 58.1187 98.0577 58.1916C97.2106 58.2483 96.7299 58.2748 96.6188 58.2748C96.2224 58.2748 95.9679 58.1644 95.8522 57.9405L95.7678 57.5208L95.7717 57.5223Z" fill="#719B3F"/>
</g>
<defs>
<linearGradient id="paint0_linear_2454_870" x1="46.0951" y1="63.8509" x2="87.1443" y2="63.8509" gradientUnits="userSpaceOnUse">
<stop stop-color="#A9CAD1"/>
<stop offset="1" stop-color="white"/>
</linearGradient>
<linearGradient id="paint1_linear_2454_870" x1="28.5375" y1="-7.59487" x2="35.4597" y2="-7.59487" gradientUnits="userSpaceOnUse">
<stop stop-color="#FF543D"/>
<stop offset="1" stop-color="#B31205"/>
</linearGradient>
<linearGradient id="paint2_linear_2454_870" x1="15066.6" y1="32952.1" x2="15068.7" y2="32952.1" gradientUnits="userSpaceOnUse">
<stop stop-color="white"/>
<stop offset="1"/>
</linearGradient>
<linearGradient id="paint3_linear_2454_870" x1="72.533" y1="23.3033" x2="81.4138" y2="23.3033" gradientUnits="userSpaceOnUse">
<stop stop-color="#FF543D"/>
<stop offset="1" stop-color="#B31205"/>
</linearGradient>
<linearGradient id="paint4_linear_2454_870" x1="-4800.1" y1="19456.3" x2="-4796.03" y2="19456.3" gradientUnits="userSpaceOnUse">
<stop stop-color="white"/>
<stop offset="1"/>
</linearGradient>
<linearGradient id="paint5_linear_2454_870" x1="78.12" y1="25.6837" x2="86.1672" y2="25.6837" gradientUnits="userSpaceOnUse">
<stop stop-color="#FF543D"/>
<stop offset="1" stop-color="#B31205"/>
</linearGradient>
<linearGradient id="paint6_linear_2454_870" x1="-5453.04" y1="10934.3" x2="-5447.95" y2="10934.3" gradientUnits="userSpaceOnUse">
<stop stop-color="white"/>
<stop offset="1"/>
</linearGradient>
<linearGradient id="paint7_linear_2454_870" x1="66.3494" y1="63.0817" x2="66.75" y2="70.2166" gradientUnits="userSpaceOnUse">
<stop stop-color="#FF543D"/>
<stop offset="1" stop-color="#B31205"/>
</linearGradient>
<linearGradient id="paint8_linear_2454_870" x1="68.3966" y1="53.7077" x2="69.3184" y2="58.7146" gradientUnits="userSpaceOnUse">
<stop stop-color="white"/>
<stop offset="1"/>
</linearGradient>
<linearGradient id="paint9_linear_2454_870" x1="86.3417" y1="66.3063" x2="78.4105" y2="65.5895" gradientUnits="userSpaceOnUse">
<stop stop-color="#FF543D"/>
<stop offset="1" stop-color="#B31205"/>
</linearGradient>
<linearGradient id="paint10_linear_2454_870" x1="96.624" y1="46.0308" x2="95.0011" y2="43.2874" gradientUnits="userSpaceOnUse">
<stop stop-color="white"/>
<stop offset="1"/>
</linearGradient>
<linearGradient id="paint11_linear_2454_870" x1="40.3841" y1="72.6522" x2="93.0086" y2="72.6522" gradientUnits="userSpaceOnUse">
<stop stop-color="white"/>
<stop offset="1" stop-color="#A9CAD1"/>
</linearGradient>
<clipPath id="clip0_2454_870">
<rect width="72" height="54" fill="white" transform="translate(35 26)"/>
</clipPath>
</defs>
</svg>
